<svg xmlns="http://www.w3.org/2000/svg" xmlns:xlink="http://www.w3.org/1999/xlink" width="780" height="385.65"><rect width="780" height="385.65" rx="5" ry="5" class="a"/><svg y="0%" x="0%"><circle cx="20" cy="20" r="6" fill="#ff5f58"/><circle cx="40" cy="20" r="6" fill="#ffbd2e"/><circle cx="60" cy="20" r="6" fill="#18c132"/></svg><svg height="325.65" viewBox="0 0 74 32.565" width="740" x="15" xmlns="http://www.w3.org/2000/svg" xmlns:xlink="http://www.w3.org/1999/xlink" y="50"><style>@keyframes w{0%{transform:translateX(0)}.79%{transform:translateX(-74px)}3.1%{transform:translateX(-222px)}3.11%{transform:translateX(-296px)}3.14%{transform:translateX(-370px)}3.5%{transform:translateX(-592px)}7.48%{transform:translateX(-666px)}14.25%{transform:translateX(-740px)}14.26%{transform:translateX(-888px)}19.47%{transform:translateX(-1036px)}23.95%{transform:translateX(-1184px)}26.3%{transform:translateX(-1332px)}27.32%{transform:translateX(-1406px)}27.33%{transform:translateX(-1480px)}29.24%{transform:translateX(-1628px)}29.25%{transform:translateX(-1702px)}32.02%{transform:translateX(-1776px)}32.03%{transform:translateX(-1850px)}35.25%{transform:translateX(-1998px)}35.26%{transform:translateX(-2146px)}37.56%{transform:translateX(-2294px)}40.81%{transform:translateX(-2442px)}40.82%{transform:translateX(-2590px)}44.66%{transform:translateX(-2738px)}47.65%{transform:translateX(-2886px)}47.66%{transform:translateX(-2960px)}47.67%{transform:translateX(-3034px)}51.18%{transform:translateX(-3108px)}52.78%{transform:translateX(-3182px)}53.79%{transform:translateX(-3256px)}56.88%{transform:translateX(-3404px)}60.1%{transform:translateX(-3478px)}61.14%{transform:translateX(-3552px)}62.18%{transform:translateX(-3626px)}63.21%{transform:translateX(-3700px)}64.27%{transform:translateX(-3774px)}65.29%{transform:translateX(-3848px)}66.57%{transform:translateX(-3996px)}67.6%{transform:translateX(-4070px)}75.91%{transform:translateX(-4144px)}75.98%{transform:translateX(-4218px)}76%{transform:translateX(-4292px)}76.03%{transform:translateX(-4366px)}76.38%{transform:translateX(-4514px)}79.36%{transform:translateX(-4588px)}80.17%{transform:translateX(-4662px)}81.88%{transform:translateX(-4736px)}83.52%{transform:translateX(-4810px)}84.13%{transform:translateX(-4884px)}85.37%{transform:translateX(-5032px)}85.38%{transform:translateX(-5106px)}85.4%{transform:translateX(-5254px)}85.41%{transform:translateX(-5476px)}85.44%{transform:translateX(-5550px)}85.8%{transform:translateX(-5698px)}to{transform:translateX(-5772px)}}.a{fill:#fff}.f,.g,.h,.i,.j{fill:#25bc24;font-weight:700;white-space:pre}.g,.h,.i,.j{fill:#33bbc8}.h,.i,.j{fill:#492ee1}.i,.j{fill:#c23621}.j{fill:#adad27}.m{fill:#33bbc8}.m,.n,.o,.p{white-space:pre}.n{fill:#000;font-weight:700}.o,.p{fill:#818383}.p{fill:#33bbc8;text-decoration:underline}.q,.r,.s,.t{fill:#000;white-space:pre}.r,.s,.t{fill:#25bc24}.s,.t{fill:#14f0f0}.t{fill:#492ee1}</style><g font-family="Monaco,Consolas,Menlo,'Bitstream Vera Sans Mono','Powerline Symbols',monospace" font-size="1.67"><defs><symbol id="1"><text y="1.67" class="f">➜</text><text x="3.006" y="1.67" class="g">lint-cli</text><text x="12.024" y="1.67" class="h">git:(</text><text x="17.034" y="1.67" class="i">master</text><text x="23.046" y="1.67" class="h">)</text><text x="25.05" y="1.67" class="j">✗</text></symbol><symbol id="2"><text y="1.67" class="f">➜</text><text x="3.006" y="1.67" class="g">lint-cli</text><text x="12.024" y="1.67" class="h">git:(</text><text x="17.034" y="1.67" class="i">master</text><text x="23.046" y="1.67" class="h">)</text><text x="25.05" y="1.67" class="j">✗</text><path fill="#b9c0cb" d="M27.054 0h23v2.171h-23z"/><text x="27.054" y="1.67" style="white-space:pre" fill="#fff">npm create @bfehub/lint</text></symbol><symbol id="3"><text y="1.67" class="m">?</text><text x="2.004" y="1.67" class="n">Pick</text><text x="7.014" y="1.67" class="n">a</text><text x="9.018" y="1.67" class="n">eslint</text><text x="16.032" y="1.67" class="n">preset</text><text x="23.046" y="1.67" class="o">›</text><text x="25.05" y="1.67" class="o">-</text><text x="27.054" y="1.67" class="o">Use</text><text x="31.062" y="1.67" class="o">arrow-keys.</text><text x="43.086" y="1.67" class="o">Return</text><text x="50.1" y="1.67" class="o">to</text><text x="53.106" y="1.67" class="o">submit.</text></symbol><symbol id="4"><text y="1.67" class="m">❯</text><text x="4.008" y="1.67" class="p">none</text></symbol><symbol id="5"><text x="4.008" y="1.67" class="q">basic</text></symbol><symbol id="6"><text x="4.008" y="1.67" class="q">typescript</text></symbol><symbol id="7"><text x="4.008" y="1.67" class="q">vue</text></symbol><symbol id="8"><text x="4.008" y="1.67" class="q">react</text></symbol><symbol id="9"><text x="4.008" y="1.67" class="q">none</text></symbol><symbol id="10"><text y="1.67" class="m">❯</text><text x="4.008" y="1.67" class="p">basic</text></symbol><symbol id="11"><text y="1.67" class="r">✔</text><text x="2.004" y="1.67" class="n">Pick</text><text x="7.014" y="1.67" class="n">a</text><text x="9.018" y="1.67" class="n">eslint</text><text x="16.032" y="1.67" class="n">preset</text><text x="23.046" y="1.67" class="o">›</text><text x="25.05" y="1.67" class="q">vue</text></symbol><symbol id="12"><text y="1.67" class="m">?</text><text x="2.004" y="1.67" class="n">Pick</text><text x="7.014" y="1.67" class="n">a</text><text x="9.018" y="1.67" class="n">stylelint</text><text x="19.038" y="1.67" class="n">preset</text><text x="26.052" y="1.67" class="o">›</text><text x="28.056" y="1.67" class="o">-</text><text x="30.06" y="1.67" class="o">Use</text><text x="34.068" y="1.67" class="o">arrow-keys.</text><text x="46.092" y="1.67" class="o">Return</text><text x="53.106" y="1.67" class="o">to</text><text x="56.112" y="1.67" class="o">submit.</text></symbol><symbol id="13"><text y="1.67" class="r">✔</text><text x="2.004" y="1.67" class="n">Pick</text><text x="7.014" y="1.67" class="n">a</text><text x="9.018" y="1.67" class="n">stylelint</text><text x="19.038" y="1.67" class="n">preset</text><text x="26.052" y="1.67" class="o">›</text><text x="28.056" y="1.67" class="q">basic</text></symbol><symbol id="14"><text y="1.67" class="m">?</text><text x="2.004" y="1.67" class="n">Pick</text><text x="7.014" y="1.67" class="n">a</text><text x="9.018" y="1.67" class="n">commit</text><text x="16.032" y="1.67" class="n">preset</text><text x="23.046" y="1.67" class="o">›</text><text x="25.05" y="1.67" class="o">-</text><text x="27.054" y="1.67" class="o">Use</text><text x="31.062" y="1.67" class="o">arrow-keys.</text><text x="43.086" y="1.67" class="o">Return</text><text x="50.1" y="1.67" class="o">to</text><text x="53.106" y="1.67" class="o">submit.</text></symbol><symbol id="15"><text y="1.67" class="r">✔</text><text x="2.004" y="1.67" class="n">Pick</text><text x="7.014" y="1.67" class="n">a</text><text x="9.018" y="1.67" class="n">commit</text><text x="16.032" y="1.67" class="n">preset</text><text x="23.046" y="1.67" class="o">›</text><text x="25.05" y="1.67" class="q">basic</text></symbol><symbol id="16"><text y="1.67" class="m">?</text><text x="2.004" y="1.67" class="n">Pick</text><text x="7.014" y="1.67" class="n">a</text><text x="9.018" y="1.67" class="n">release</text><text x="17.034" y="1.67" class="n">preset</text><text x="24.048" y="1.67" class="o">›</text><text x="26.052" y="1.67" class="o">-</text><text x="28.056" y="1.67" class="o">Use</text><text x="32.064" y="1.67" class="o">arrow-keys.</text><text x="44.088" y="1.67" class="o">Return</text><text x="51.102" y="1.67" class="o">to</text><text x="54.108" y="1.67" class="o">submit.</text></symbol><symbol id="17"><text x="4.008" y="1.67" class="q">release-it</text></symbol><symbol id="18"><text y="1.67" class="r">✔</text><text x="2.004" y="1.67" class="n">Pick</text><text x="7.014" y="1.67" class="n">a</text><text x="9.018" y="1.67" class="n">release</text><text x="17.034" y="1.67" class="n">preset</text><text x="24.048" y="1.67" class="o">›</text><text x="26.052" y="1.67" class="q">changesets</text></symbol><symbol id="19"><text y="1.67" class="m">?</text><text x="2.004" y="1.67" class="n">Pick</text><text x="7.014" y="1.67" class="n">files</text><text x="13.026" y="1.67" class="n">preset</text><text x="20.04" y="1.67" class="o">›</text><text x="22.044" y="1.67" class="o">-</text><text x="24.048" y="1.67" class="o">Space</text><text x="30.06" y="1.67" class="o">to</text><text x="33.066" y="1.67" class="o">select.</text><text x="41.082" y="1.67" class="o">Return</text><text x="48.096" y="1.67" class="o">to</text><text x="51.102" y="1.67" class="o">submit</text></symbol><symbol id="20"><text y="1.67" class="q">Instructions:</text></symbol><symbol id="21"><text x="4.008" y="1.67" class="q">↑/↓:</text><text x="9.018" y="1.67" class="q">Highlight</text><text x="19.038" y="1.67" class="q">option</text></symbol><symbol id="22"><text x="4.008" y="1.67" class="q">←/→/[space]:</text><text x="17.034" y="1.67" class="q">Toggle</text><text x="24.048" y="1.67" class="q">selection</text></symbol><symbol id="23"><text x="4.008" y="1.67" class="q">a:</text><text x="7.014" y="1.67" class="q">Toggle</text><text x="14.028" y="1.67" class="q">all</text></symbol><symbol id="24"><text x="4.008" y="1.67" class="q">enter/return:</text><text x="18.036" y="1.67" class="q">Complete</text><text x="27.054" y="1.67" class="q">answer</text></symbol><symbol id="25"><text y="1.67" class="q">◯</text><text x="4.008" y="1.67" class="q">.gitignore</text></symbol><symbol id="26"><text y="1.67" class="r">◉</text><text x="4.008" y="1.67" class="q">.editorconfig</text></symbol><symbol id="27"><text y="1.67" class="r">✔</text><text x="2.004" y="1.67" class="n">Pick</text><text x="7.014" y="1.67" class="n">files</text><text x="13.026" y="1.67" class="n">preset</text><text x="20.04" y="1.67" class="o">›</text><text x="22.044" y="1.67" class="q">.editorconfig,</text><text x="37.074" y="1.67" class="q">.gitignore</text></symbol><symbol id="28"><text y="1.67" class="q">Progress:</text><text x="10.02" y="1.67" class="q">resolved</text><text x="19.038" y="1.67" class="s">197</text><text x="22.044" y="1.67" class="q">,</text><text x="24.048" y="1.67" class="q">reused</text><text x="31.062" y="1.67" class="s">197</text><text x="34.068" y="1.67" class="q">,</text><text x="36.072" y="1.67" class="q">downloaded</text><text x="47.094" y="1.67" class="s">0</text><text x="48.096" y="1.67" class="q">,</text><text x="50.1" y="1.67" class="q">added</text><text x="56.112" y="1.67" class="s">0</text></symbol><symbol id="29"><text y="1.67" class="q">Already</text><text x="8.016" y="1.67" class="q">up-to-date</text></symbol><symbol id="30"><text y="1.67" class="q">Progress:</text><text x="10.02" y="1.67" class="q">resolved</text><text x="19.038" y="1.67" class="s">197</text><text x="22.044" y="1.67" class="q">,</text><text x="24.048" y="1.67" class="q">reused</text><text x="31.062" y="1.67" class="s">197</text><text x="34.068" y="1.67" class="q">,</text><text x="36.072" y="1.67" class="q">downloaded</text><text x="47.094" y="1.67" class="s">0</text><text x="48.096" y="1.67" class="q">,</text><text x="50.1" y="1.67" class="q">added</text><text x="56.112" y="1.67" class="s">0</text><text x="57.114" y="1.67" class="q">,</text><text x="59.118" y="1.67" class="q">done</text></symbol><symbol id="31"><text y="1.67" class="t">✨</text><text x="2.004" y="1.67" class="t">created</text><text x="10.02" y="1.67" class="t">success.</text><text x="19.038" y="1.67" class="t">✨</text></symbol><symbol id="32"><text y="1.67" class="f">➜</text><text x="3.006" y="1.67" class="g">lint-cli</text><text x="12.024" y="1.67" class="h">git:(</text><text x="17.034" y="1.67" class="i">master</text><text x="23.046" y="1.67" class="h">)</text><text x="25.05" y="1.67" class="j">✗</text><text x="27.054" y="1.67" class="q">ls</text></symbol><symbol id="33"><text y="1.67" class="f">➜</text><text x="3.006" y="1.67" class="g">lint-cli</text><text x="12.024" y="1.67" class="h">git:(</text><text x="17.034" y="1.67" class="i">master</text><text x="23.046" y="1.67" class="h">)</text><text x="25.05" y="1.67" class="j">✗</text><text x="27.054" y="1.67" class="q">ls</text><text x="30.06" y="1.67" class="q">-a</text></symbol><symbol id="34"><text y="1.67" class="g">.</text><text x="17.034" y="1.67" class="q">.editorconfig</text><text x="34.068" y="1.67" class="q">.lintstagedrc.js</text><text x="51.102" y="1.67" class="g">node_modules</text></symbol><symbol id="35"><text y="1.67" class="g">..</text><text x="17.034" y="1.67" class="q">.eslintignore</text><text x="34.068" y="1.67" class="q">.prettierignore</text><text x="51.102" y="1.67" class="q">package.json</text></symbol><symbol id="36"><text y="1.67" class="q">.DS_Store</text><text x="17.034" y="1.67" class="q">.eslintrc.js</text><text x="34.068" y="1.67" class="q">.prettierrc.js</text><text x="51.102" y="1.67" class="q">play.cast</text></symbol><symbol id="37"><text y="1.67" class="g">.changeset</text><text x="17.034" y="1.67" class="g">.git</text><text x="34.068" y="1.67" class="q">.stylelintignore</text><text x="51.102" y="1.67" class="q">pnpm-lock.yaml</text></symbol><symbol id="38"><text y="1.67" class="q">.commitlintrc.js</text><text x="17.034" y="1.67" class="q">.gitignore</text><text x="34.068" y="1.67" class="q">.stylelintrc.js</text></symbol><symbol id="39"><text y="1.67" class="q">.czrc</text><text x="17.034" y="1.67" class="g">.husky</text><text x="34.068" y="1.67" class="g">examples</text></symbol><symbol id="a"><path fill="transparent" d="M0 0h74v16H0z"/></symbol><symbol id="b"><path fill="#929292" d="M0 0h1.102v2.171H0z"/></symbol></defs><path class="a" d="M0 0h74v32.565H0z"/><g style="animation-duration:19.578425s;animation-iteration-count:infinite;animation-name:w;animation-timing-function:steps(1,end)"><svg width="5846"><svg><use xlink:href="#a"/><use xlink:href="#b" x="-.004"/></svg><svg x="74"><use xlink:href="#a"/><use xlink:href="#b" x="-.004"/></svg><svg x="148"><use xlink:href="#a"/><use xlink:href="#b" x="-.004"/></svg><svg x="222"><use xlink:href="#a"/><use xlink:href="#b" x="-.004"/></svg><svg x="296"><use xlink:href="#a"/><use xlink:href="#b" x="-.004"/></svg><svg x="370"><use xlink:href="#a"/><use xlink:href="#b" x="-.004"/></svg><svg x="444"><use xlink:href="#a"/><use xlink:href="#b" x="26.996"/><use xlink:href="#1"/></svg><svg x="518"><use xlink:href="#a"/><use xlink:href="#b" x="26.996"/><use xlink:href="#1"/></svg><svg x="592"><use xlink:href="#a"/><use xlink:href="#b" x="26.996"/><use xlink:href="#1"/></svg><svg x="666"><use xlink:href="#a"/><use xlink:href="#b" x="49.996"/><use xlink:href="#2"/></svg><svg x="740"><use xlink:href="#a"/><use xlink:href="#b" x="49.996"/><use xlink:href="#2"/></svg><svg x="814"><use xlink:href="#a"/><use xlink:href="#b" x="-.004" y="2.146"/><use xlink:href="#2"/></svg><svg x="888"><use xlink:href="#a"/><use xlink:href="#b" x="-.004" y="2.146"/><use xlink:href="#2"/></svg><svg x="962"><use xlink:href="#a"/><use xlink:href="#2"/></svg><svg x="1036"><use xlink:href="#a"/><use xlink:href="#2"/><use xlink:href="#3" y="2.171"/><use xlink:href="#4" y="4.342"/><use xlink:href="#5" y="6.513"/><use xlink:href="#6" y="8.684"/><use xlink:href="#7" y="10.855"/><use xlink:href="#8" y="13.026"/></svg><svg x="1110"><use xlink:href="#a"/><use xlink:href="#2"/></svg><svg x="1184"><use xlink:href="#a"/><use xlink:href="#2"/><use xlink:href="#3" y="2.171"/><use xlink:href="#9" y="4.342"/><use xlink:href="#10" y="6.513"/><use xlink:href="#6" y="8.684"/><use xlink:href="#7" y="10.855"/><use xlink:href="#8" y="13.026"/></svg><svg x="1258"><use xlink:href="#a"/><use xlink:href="#2"/></svg><svg x="1332"><use xlink:href="#a"/><use xlink:href="#2"/><use xlink:href="#3" y="2.171"/><use xlink:href="#9" y="4.342"/><use xlink:href="#5" y="6.513"/><text y="10.354" class="m">❯</text><text x="4.008" y="10.354" class="p">typescript</text><use xlink:href="#7" y="10.855"/><use xlink:href="#8" y="13.026"/></svg><svg x="1406"><use xlink:href="#a"/><use xlink:href="#2"/></svg><svg x="1480"><use xlink:href="#a"/><use xlink:href="#2"/><use xlink:href="#3" y="2.171"/><use xlink:href="#9" y="4.342"/><use xlink:href="#5" y="6.513"/><use xlink:href="#6" y="8.684"/><text y="12.525" class="m">❯</text><text x="4.008" y="12.525" class="p">vue</text><use xlink:href="#8" y="13.026"/></svg><svg x="1554"><use xlink:href="#a"/><use xlink:href="#2"/></svg><svg x="1628"><use xlink:href="#a"/><use xlink:href="#b" x="-.004" y="4.317"/><use xlink:href="#2"/><use xlink:href="#11" y="2.171"/></svg><svg x="1702"><use xlink:href="#a"/><use xlink:href="#2"/><use xlink:href="#11" y="2.171"/><use xlink:href="#12" y="4.342"/><use xlink:href="#4" y="6.513"/><use xlink:href="#5" y="8.684"/></svg><svg x="1776"><use xlink:href="#a"/><use xlink:href="#2"/><use xlink:href="#11" y="2.171"/></svg><svg x="1850"><use xlink:href="#a"/><use xlink:href="#2"/><use xlink:href="#11" y="2.171"/><use xlink:href="#12" y="4.342"/><use xlink:href="#9" y="6.513"/><use xlink:href="#10" y="8.684"/></svg><svg x="1924"><use xlink:href="#a"/><use xlink:href="#2"/><use xlink:href="#11" y="2.171"/></svg><svg x="1998"><use xlink:href="#a"/><use xlink:href="#b" x="-.004" y="6.488"/><use xlink:href="#2"/><use xlink:href="#11" y="2.171"/><use xlink:href="#13" y="4.342"/></svg><svg x="2072"><use xlink:href="#a"/><use xlink:href="#2"/><use xlink:href="#11" y="2.171"/><use xlink:href="#13" y="4.342"/></svg><svg x="2146"><use xlink:href="#a"/><use xlink:href="#2"/><use xlink:href="#11" y="2.171"/><use xlink:href="#13" y="4.342"/><use xlink:href="#14" y="6.513"/><use xlink:href="#4" y="8.684"/><use xlink:href="#5" y="10.855"/></svg><svg x="2220"><use xlink:href="#a"/><use xlink:href="#2"/><use xlink:href="#11" y="2.171"/><use xlink:href="#13" y="4.342"/></svg><svg x="2294"><use xlink:href="#a"/><use xlink:href="#2"/><use xlink:href="#11" y="2.171"/><use xlink:href="#13" y="4.342"/><use xlink:href="#14" y="6.513"/><use xlink:href="#9" y="8.684"/><use xlink:href="#10" y="10.855"/></svg><svg x="2368"><use xlink:href="#a"/><use xlink:href="#2"/><use xlink:href="#11" y="2.171"/><use xlink:href="#13" y="4.342"/></svg><svg x="2442"><use xlink:href="#a"/><use xlink:href="#b" x="-.004" y="8.659"/><use xlink:href="#2"/><use xlink:href="#11" y="2.171"/><use xlink:href="#13" y="4.342"/><use xlink:href="#15" y="6.513"/></svg><svg x="2516"><use xlink:href="#a"/><use xlink:href="#2"/><use xlink:href="#11" y="2.171"/><use xlink:href="#13" y="4.342"/><use xlink:href="#15" y="6.513"/></svg><svg x="2590"><use xlink:href="#a"/><use xlink:href="#2"/><use xlink:href="#11" y="2.171"/><use xlink:href="#13" y="4.342"/><use xlink:href="#15" y="6.513"/><use xlink:href="#16" y="8.684"/><use xlink:href="#4" y="10.855"/><text x="4.008" y="14.696" class="q">changesets</text><use xlink:href="#17" y="15.197"/></svg><svg x="2664"><use xlink:href="#a"/><use xlink:href="#2"/><use xlink:href="#11" y="2.171"/><use xlink:href="#13" y="4.342"/><use xlink:href="#15" y="6.513"/></svg><svg x="2738"><use xlink:href="#a"/><use xlink:href="#2"/><use xlink:href="#11" y="2.171"/><use xlink:href="#13" y="4.342"/><use xlink:href="#15" y="6.513"/><use xlink:href="#16" y="8.684"/><use xlink:href="#9" y="10.855"/><text y="14.696" class="m">❯</text><text x="4.008" y="14.696" class="p">changesets</text><use xlink:href="#17" y="15.197"/></svg><svg x="2812"><use xlink:href="#a"/><use xlink:href="#2"/><use xlink:href="#11" y="2.171"/><use xlink:href="#13" y="4.342"/><use xlink:href="#15" y="6.513"/></svg><svg x="2886"><use xlink:href="#a"/><use xlink:href="#b" x="-.004" y="10.83"/><use xlink:href="#2"/><use xlink:href="#11" y="2.171"/><use xlink:href="#13" y="4.342"/><use xlink:href="#15" y="6.513"/><use xlink:href="#18" y="8.684"/></svg><svg x="2960"><use xlink:href="#a"/><use xlink:href="#2"/><use xlink:href="#11" y="2.171"/><use xlink:href="#13" y="4.342"/><use xlink:href="#15" y="6.513"/><use xlink:href="#18" y="8.684"/></svg><svg x="3034"><use xlink:href="#a"/><use xlink:href="#2"/><use xlink:href="#11" y="2.171"/><use xlink:href="#13" y="4.342"/><use xlink:href="#15" y="6.513"/><use xlink:href="#18" y="8.684"/><use xlink:href="#19" y="10.855"/><use xlink:href="#20" y="13.026"/><use xlink:href="#21" y="15.197"/><use xlink:href="#22" y="17.368"/><use xlink:href="#23" y="19.539"/><use xlink:href="#24" y="21.71"/><text y="25.551" class="q">◯</text><text x="4.008" y="25.551" class="p">.editorconfig</text><use xlink:href="#25" y="26.052"/></svg><svg x="3108"><use xlink:href="#a"/><use xlink:href="#2"/><use xlink:href="#11" y="2.171"/><use xlink:href="#13" y="4.342"/><use xlink:href="#15" y="6.513"/><use xlink:href="#18" y="8.684"/><use xlink:href="#19" y="10.855"/><use xlink:href="#20" y="13.026"/><use xlink:href="#21" y="15.197"/><use xlink:href="#22" y="17.368"/><use xlink:href="#23" y="19.539"/><use xlink:href="#24" y="21.71"/><text y="25.551" class="r">◉</text><text x="4.008" y="25.551" class="p">.editorconfig</text><use xlink:href="#25" y="26.052"/></svg><svg x="3182"><use xlink:href="#a"/><use xlink:href="#2"/><use xlink:href="#11" y="2.171"/><use xlink:href="#13" y="4.342"/><use xlink:href="#15" y="6.513"/><use xlink:href="#18" y="8.684"/><use xlink:href="#19" y="10.855"/><use xlink:href="#20" y="13.026"/><use xlink:href="#21" y="15.197"/><use xlink:href="#22" y="17.368"/><use xlink:href="#23" y="19.539"/><use xlink:href="#24" y="21.71"/><use xlink:href="#26" y="23.881"/><text y="27.722" class="q">◯</text><text x="4.008" y="27.722" class="p">.gitignore</text></svg><svg x="3256"><use xlink:href="#a"/><use xlink:href="#2"/><use xlink:href="#11" y="2.171"/><use xlink:href="#13" y="4.342"/><use xlink:href="#15" y="6.513"/><use xlink:href="#18" y="8.684"/><use xlink:href="#19" y="10.855"/><use xlink:href="#20" y="13.026"/><use xlink:href="#21" y="15.197"/><use xlink:href="#22" y="17.368"/><use xlink:href="#23" y="19.539"/><use xlink:href="#24" y="21.71"/><use xlink:href="#26" y="23.881"/><text y="27.722" class="r">◉</text><text x="4.008" y="27.722" class="p">.gitignore</text></svg><svg x="3330"><use xlink:href="#a"/><use xlink:href="#2"/><use xlink:href="#11" y="2.171"/><use xlink:href="#13" y="4.342"/><use xlink:href="#15" y="6.513"/><use xlink:href="#18" y="8.684"/><use xlink:href="#27" y="10.855"/></svg><svg x="3404"><use xlink:href="#a"/><use xlink:href="#b" x="-.004" y="13.001"/><use xlink:href="#2"/><use xlink:href="#11" y="2.171"/><use xlink:href="#13" y="4.342"/><use xlink:href="#15" y="6.513"/><use xlink:href="#18" y="8.684"/><use xlink:href="#27" y="10.855"/></svg><svg x="3478"><use xlink:href="#a"/><use xlink:href="#b" x="-.004" y="15.172"/><use xlink:href="#2"/><use xlink:href="#11" y="2.171"/><use xlink:href="#13" y="4.342"/><use xlink:href="#15" y="6.513"/><use xlink:href="#18" y="8.684"/><use xlink:href="#27" y="10.855"/><text y="14.696" class="q">Progress:</text><text x="10.02" y="14.696" class="q">resolved</text><text x="19.038" y="14.696" class="s">1</text><text x="20.04" y="14.696" class="q">,</text><text x="22.044" y="14.696" class="q">reused</text><text x="29.058" y="14.696" class="s">0</text><text x="30.06" y="14.696" class="q">,</text><text x="32.064" y="14.696" class="q">downloaded</text><text x="43.086" y="14.696" class="s">0</text><text x="44.088" y="14.696" class="q">,</text><text x="46.092" y="14.696" class="q">added</text><text x="52.104" y="14.696" class="s">0</text></svg><svg x="3552"><use xlink:href="#a"/><use xlink:href="#b" x="-.004" y="15.172"/><use xlink:href="#2"/><use xlink:href="#11" y="2.171"/><use xlink:href="#13" y="4.342"/><use xlink:href="#15" y="6.513"/><use xlink:href="#18" y="8.684"/><use xlink:href="#27" y="10.855"/><text y="14.696" class="q">Progress:</text><text x="10.02" y="14.696" class="q">resolved</text><text x="19.038" y="14.696" class="s">10</text><text x="21.042" y="14.696" class="q">,</text><text x="23.046" y="14.696" class="q">reused</text><text x="30.06" y="14.696" class="s">10</text><text x="32.064" y="14.696" class="q">,</text><text x="34.068" y="14.696" class="q">downloaded</text><text x="45.09" y="14.696" class="s">0</text><text x="46.092" y="14.696" class="q">,</text><text x="48.096" y="14.696" class="q">added</text><text x="54.108" y="14.696" class="s">0</text></svg><svg x="3626"><use xlink:href="#a"/><use xlink:href="#b" x="-.004" y="15.172"/><use xlink:href="#2"/><use xlink:href="#11" y="2.171"/><use xlink:href="#13" y="4.342"/><use xlink:href="#15" y="6.513"/><use xlink:href="#18" y="8.684"/><use xlink:href="#27" y="10.855"/><text y="14.696" class="q">Progress:</text><text x="10.02" y="14.696" class="q">resolved</text><text x="19.038" y="14.696" class="s">15</text><text x="21.042" y="14.696" class="q">,</text><text x="23.046" y="14.696" class="q">reused</text><text x="30.06" y="14.696" class="s">15</text><text x="32.064" y="14.696" class="q">,</text><text x="34.068" y="14.696" class="q">downloaded</text><text x="45.09" y="14.696" class="s">0</text><text x="46.092" y="14.696" class="q">,</text><text x="48.096" y="14.696" class="q">added</text><text x="54.108" y="14.696" class="s">0</text></svg><svg x="3700"><use xlink:href="#a"/><use xlink:href="#b" x="-.004" y="15.172"/><use xlink:href="#2"/><use xlink:href="#11" y="2.171"/><use xlink:href="#13" y="4.342"/><use xlink:href="#15" y="6.513"/><use xlink:href="#18" y="8.684"/><use xlink:href="#27" y="10.855"/><text y="14.696" class="q">Progress:</text><text x="10.02" y="14.696" class="q">resolved</text><text x="19.038" y="14.696" class="s">93</text><text x="21.042" y="14.696" class="q">,</text><text x="23.046" y="14.696" class="q">reused</text><text x="30.06" y="14.696" class="s">93</text><text x="32.064" y="14.696" class="q">,</text><text x="34.068" y="14.696" class="q">downloaded</text><text x="45.09" y="14.696" class="s">0</text><text x="46.092" y="14.696" class="q">,</text><text x="48.096" y="14.696" class="q">added</text><text x="54.108" y="14.696" class="s">0</text></svg><svg x="3774"><use xlink:href="#a"/><use xlink:href="#b" x="-.004" y="15.172"/><use xlink:href="#2"/><use xlink:href="#11" y="2.171"/><use xlink:href="#13" y="4.342"/><use xlink:href="#15" y="6.513"/><use xlink:href="#18" y="8.684"/><use xlink:href="#27" y="10.855"/><text y="14.696" class="q">Progress:</text><text x="10.02" y="14.696" class="q">resolved</text><text x="19.038" y="14.696" class="s">133</text><text x="22.044" y="14.696" class="q">,</text><text x="24.048" y="14.696" class="q">reused</text><text x="31.062" y="14.696" class="s">133</text><text x="34.068" y="14.696" class="q">,</text><text x="36.072" y="14.696" class="q">downloaded</text><text x="47.094" y="14.696" class="s">0</text><text x="48.096" y="14.696" class="q">,</text><text x="50.1" y="14.696" class="q">added</text><text x="56.112" y="14.696" class="s">0</text></svg><svg x="3848"><use xlink:href="#a"/><use xlink:href="#b" x="-.004" y="15.172"/><use xlink:href="#2"/><use xlink:href="#11" y="2.171"/><use xlink:href="#13" y="4.342"/><use xlink:href="#15" y="6.513"/><use xlink:href="#18" y="8.684"/><use xlink:href="#27" y="10.855"/><text y="14.696" class="q">Progress:</text><text x="10.02" y="14.696" class="q">resolved</text><text x="19.038" y="14.696" class="s">156</text><text x="22.044" y="14.696" class="q">,</text><text x="24.048" y="14.696" class="q">reused</text><text x="31.062" y="14.696" class="s">156</text><text x="34.068" y="14.696" class="q">,</text><text x="36.072" y="14.696" class="q">downloaded</text><text x="47.094" y="14.696" class="s">0</text><text x="48.096" y="14.696" class="q">,</text><text x="50.1" y="14.696" class="q">added</text><text x="56.112" y="14.696" class="s">0</text></svg><svg x="3922"><use xlink:href="#a"/><use xlink:href="#b" x="-.004" y="15.172"/><use xlink:href="#2"/><use xlink:href="#11" y="2.171"/><use xlink:href="#13" y="4.342"/><use xlink:href="#15" y="6.513"/><use xlink:href="#18" y="8.684"/><use xlink:href="#27" y="10.855"/><use xlink:href="#28" y="13.026"/></svg><svg x="3996"><use xlink:href="#a"/><use xlink:href="#b" x="-.004" y="17.343"/><use xlink:href="#2"/><use xlink:href="#11" y="2.171"/><use xlink:href="#13" y="4.342"/><use xlink:href="#15" y="6.513"/><use xlink:href="#18" y="8.684"/><use xlink:href="#27" y="10.855"/><use xlink:href="#29" y="13.026"/><use xlink:href="#28" y="15.197"/></svg><svg x="4070"><use xlink:href="#a"/><use xlink:href="#b" x="-.004" y="17.343"/><use xlink:href="#2"/><use xlink:href="#11" y="2.171"/><use xlink:href="#13" y="4.342"/><use xlink:href="#15" y="6.513"/><use xlink:href="#18" y="8.684"/><use xlink:href="#27" y="10.855"/><use xlink:href="#29" y="13.026"/><use xlink:href="#30" y="15.197"/></svg><svg x="4144"><use xlink:href="#a"/><use xlink:href="#b" x="-.004" y="19.514"/><use xlink:href="#2"/><use xlink:href="#11" y="2.171"/><use xlink:href="#13" y="4.342"/><use xlink:href="#15" y="6.513"/><use xlink:href="#18" y="8.684"/><use xlink:href="#27" y="10.855"/><use xlink:href="#29" y="13.026"/><use xlink:href="#30" y="15.197"/><use xlink:href="#31" y="17.368"/></svg><svg x="4218"><use xlink:href="#a"/><use xlink:href="#b" x="-.004" y="19.514"/><use xlink:href="#2"/><use xlink:href="#11" y="2.171"/><use xlink:href="#13" y="4.342"/><use xlink:href="#15" y="6.513"/><use xlink:href="#18" y="8.684"/><use xlink:href="#27" y="10.855"/><use xlink:href="#29" y="13.026"/><use xlink:href="#30" y="15.197"/><use xlink:href="#31" y="17.368"/></svg><svg x="4292"><use xlink:href="#a"/><use xlink:href="#b" x="-.004" y="19.514"/><use xlink:href="#2"/><use xlink:href="#11" y="2.171"/><use xlink:href="#13" y="4.342"/><use xlink:href="#15" y="6.513"/><use xlink:href="#18" y="8.684"/><use xlink:href="#27" y="10.855"/><use xlink:href="#29" y="13.026"/><use xlink:href="#30" y="15.197"/><use xlink:href="#31" y="17.368"/></svg><svg x="4366"><use xlink:href="#a"/><use xlink:href="#b" x="-.004" y="19.514"/><use xlink:href="#2"/><use xlink:href="#11" y="2.171"/><use xlink:href="#13" y="4.342"/><use xlink:href="#15" y="6.513"/><use xlink:href="#18" y="8.684"/><use xlink:href="#27" y="10.855"/><use xlink:href="#29" y="13.026"/><use xlink:href="#30" y="15.197"/><use xlink:href="#31" y="17.368"/></svg><svg x="4440"><use xlink:href="#a"/><use xlink:href="#b" x="26.996" y="19.514"/><use xlink:href="#2"/><use xlink:href="#11" y="2.171"/><use xlink:href="#13" y="4.342"/><use xlink:href="#15" y="6.513"/><use xlink:href="#18" y="8.684"/><use xlink:href="#27" y="10.855"/><use xlink:href="#29" y="13.026"/><use xlink:href="#30" y="15.197"/><use xlink:href="#31" y="17.368"/><use xlink:href="#1" y="19.539"/></svg><svg x="4514"><use xlink:href="#a"/><use xlink:href="#b" x="26.996" y="19.514"/><use xlink:href="#2"/><use xlink:href="#11" y="2.171"/><use xlink:href="#13" y="4.342"/><use xlink:href="#15" y="6.513"/><use xlink:href="#18" y="8.684"/><use xlink:href="#27" y="10.855"/><use xlink:href="#29" y="13.026"/><use xlink:href="#30" y="15.197"/><use xlink:href="#31" y="17.368"/><use xlink:href="#1" y="19.539"/></svg><svg x="4588"><use xlink:href="#a"/><use xlink:href="#b" x="27.996" y="19.514"/><use xlink:href="#2"/><use xlink:href="#11" y="2.171"/><use xlink:href="#13" y="4.342"/><use xlink:href="#15" y="6.513"/><use xlink:href="#18" y="8.684"/><use xlink:href="#27" y="10.855"/><use xlink:href="#29" y="13.026"/><use xlink:href="#30" y="15.197"/><use xlink:href="#31" y="17.368"/><text y="21.209" class="f">➜</text><text x="3.006" y="21.209" class="g">lint-cli</text><text x="12.024" y="21.209" class="h">git:(</text><text x="17.034" y="21.209" class="i">master</text><text x="23.046" y="21.209" class="h">)</text><text x="25.05" y="21.209" class="j">✗</text><text x="27.054" y="21.209" class="q">l</text></svg><svg x="4662"><use xlink:href="#a"/><use xlink:href="#b" x="28.996" y="19.514"/><use xlink:href="#2"/><use xlink:href="#11" y="2.171"/><use xlink:href="#13" y="4.342"/><use xlink:href="#15" y="6.513"/><use xlink:href="#18" y="8.684"/><use xlink:href="#27" y="10.855"/><use xlink:href="#29" y="13.026"/><use xlink:href="#30" y="15.197"/><use xlink:href="#31" y="17.368"/><use xlink:href="#32" y="19.539"/></svg><svg x="4736"><use xlink:href="#a"/><use xlink:href="#b" x="29.996" y="19.514"/><use xlink:href="#2"/><use xlink:href="#11" y="2.171"/><use xlink:href="#13" y="4.342"/><use xlink:href="#15" y="6.513"/><use xlink:href="#18" y="8.684"/><use xlink:href="#27" y="10.855"/><use xlink:href="#29" y="13.026"/><use xlink:href="#30" y="15.197"/><use xlink:href="#31" y="17.368"/><use xlink:href="#32" y="19.539"/></svg><svg x="4810"><use xlink:href="#a"/><use xlink:href="#b" x="30.996" y="19.514"/><use xlink:href="#2"/><use xlink:href="#11" y="2.171"/><use xlink:href="#13" y="4.342"/><use xlink:href="#15" y="6.513"/><use xlink:href="#18" y="8.684"/><use xlink:href="#27" y="10.855"/><use xlink:href="#29" y="13.026"/><use xlink:href="#30" y="15.197"/><use xlink:href="#31" y="17.368"/><text y="21.209" class="f">➜</text><text x="3.006" y="21.209" class="g">lint-cli</text><text x="12.024" y="21.209" class="h">git:(</text><text x="17.034" y="21.209" class="i">master</text><text x="23.046" y="21.209" class="h">)</text><text x="25.05" y="21.209" class="j">✗</text><text x="27.054" y="21.209" class="q">ls</text><text x="30.06" y="21.209" class="q">-</text></svg><svg x="4884"><use xlink:href="#a"/><use xlink:href="#b" x="31.996" y="19.514"/><use xlink:href="#2"/><use xlink:href="#11" y="2.171"/><use xlink:href="#13" y="4.342"/><use xlink:href="#15" y="6.513"/><use xlink:href="#18" y="8.684"/><use xlink:href="#27" y="10.855"/><use xlink:href="#29" y="13.026"/><use xlink:href="#30" y="15.197"/><use xlink:href="#31" y="17.368"/><use xlink:href="#33" y="19.539"/></svg><svg x="4958"><use xlink:href="#a"/><use xlink:href="#b" x="31.996" y="19.514"/><use xlink:href="#2"/><use xlink:href="#11" y="2.171"/><use xlink:href="#13" y="4.342"/><use xlink:href="#15" y="6.513"/><use xlink:href="#18" y="8.684"/><use xlink:href="#27" y="10.855"/><use xlink:href="#29" y="13.026"/><use xlink:href="#30" y="15.197"/><use xlink:href="#31" y="17.368"/><use xlink:href="#33" y="19.539"/></svg><svg x="5032"><use xlink:href="#a"/><use xlink:href="#b" x="-.004" y="21.685"/><use xlink:href="#2"/><use xlink:href="#11" y="2.171"/><use xlink:href="#13" y="4.342"/><use xlink:href="#15" y="6.513"/><use xlink:href="#18" y="8.684"/><use xlink:href="#27" y="10.855"/><use xlink:href="#29" y="13.026"/><use xlink:href="#30" y="15.197"/><use xlink:href="#31" y="17.368"/><use xlink:href="#33" y="19.539"/></svg><svg x="5106"><use xlink:href="#a"/><use xlink:href="#b" x="-.004" y="21.685"/><use xlink:href="#2"/><use xlink:href="#11" y="2.171"/><use xlink:href="#13" y="4.342"/><use xlink:href="#15" y="6.513"/><use xlink:href="#18" y="8.684"/><use xlink:href="#27" y="10.855"/><use xlink:href="#29" y="13.026"/><use xlink:href="#30" y="15.197"/><use xlink:href="#31" y="17.368"/><use xlink:href="#33" y="19.539"/></svg><svg x="5180"><use xlink:href="#a"/><use xlink:href="#b" x="-.004" y="32.54"/><use xlink:href="#2"/><use xlink:href="#11" y="2.171"/><use xlink:href="#13" y="4.342"/><use xlink:href="#15" y="6.513"/><use xlink:href="#18" y="8.684"/><use xlink:href="#27" y="10.855"/><use xlink:href="#29" y="13.026"/><use xlink:href="#30" y="15.197"/><use xlink:href="#31" y="17.368"/><use xlink:href="#33" y="19.539"/><use xlink:href="#34" y="21.71"/><use xlink:href="#35" y="23.881"/><use xlink:href="#36" y="26.052"/><use xlink:href="#37" y="28.223"/><use xlink:href="#38" y="30.394"/></svg><svg x="5254"><use xlink:href="#a"/><use xlink:href="#b" x="-.004" y="32.54"/><use xlink:href="#11"/><use xlink:href="#13" y="2.171"/><use xlink:href="#15" y="4.342"/><use xlink:href="#18" y="6.513"/><use xlink:href="#27" y="8.684"/><use xlink:href="#29" y="10.855"/><use xlink:href="#30" y="13.026"/><use xlink:href="#31" y="15.197"/><use xlink:href="#33" y="17.368"/><use xlink:href="#34" y="19.539"/><use xlink:href="#35" y="21.71"/><use xlink:href="#36" y="23.881"/><use xlink:href="#37" y="26.052"/><use xlink:href="#38" y="28.223"/><use xlink:href="#39" y="30.394"/></svg><svg x="5328"><use xlink:href="#a"/><use xlink:href="#b" x="-.004" y="32.54"/><use xlink:href="#11"/><use xlink:href="#13" y="2.171"/><use xlink:href="#15" y="4.342"/><use xlink:href="#18" y="6.513"/><use xlink:href="#27" y="8.684"/><use xlink:href="#29" y="10.855"/><use xlink:href="#30" y="13.026"/><use xlink:href="#31" y="15.197"/><use xlink:href="#33" y="17.368"/><use xlink:href="#34" y="19.539"/><use xlink:href="#35" y="21.71"/><use xlink:href="#36" y="23.881"/><use xlink:href="#37" y="26.052"/><use xlink:href="#38" y="28.223"/><use xlink:href="#39" y="30.394"/></svg><svg x="5402"><use xlink:href="#a"/><use xlink:href="#b" x="-.004" y="32.54"/><use xlink:href="#11"/><use xlink:href="#13" y="2.171"/><use xlink:href="#15" y="4.342"/><use xlink:href="#18" y="6.513"/><use xlink:href="#27" y="8.684"/><use xlink:href="#29" y="10.855"/><use xlink:href="#30" y="13.026"/><use xlink:href="#31" y="15.197"/><use xlink:href="#33" y="17.368"/><use xlink:href="#34" y="19.539"/><use xlink:href="#35" y="21.71"/><use xlink:href="#36" y="23.881"/><use xlink:href="#37" y="26.052"/><use xlink:href="#38" y="28.223"/><use xlink:href="#39" y="30.394"/></svg><svg x="5476"><use xlink:href="#a"/><use xlink:href="#b" x="-.004" y="32.54"/><use xlink:href="#11"/><use xlink:href="#13" y="2.171"/><use xlink:href="#15" y="4.342"/><use xlink:href="#18" y="6.513"/><use xlink:href="#27" y="8.684"/><use xlink:href="#29" y="10.855"/><use xlink:href="#30" y="13.026"/><use xlink:href="#31" y="15.197"/><use xlink:href="#33" y="17.368"/><use xlink:href="#34" y="19.539"/><use xlink:href="#35" y="21.71"/><use xlink:href="#36" y="23.881"/><use xlink:href="#37" y="26.052"/><use xlink:href="#38" y="28.223"/><use xlink:href="#39" y="30.394"/></svg><svg x="5550"><use xlink:href="#a"/><use xlink:href="#b" x="-.004" y="32.54"/><use xlink:href="#11"/><use xlink:href="#13" y="2.171"/><use xlink:href="#15" y="4.342"/><use xlink:href="#18" y="6.513"/><use xlink:href="#27" y="8.684"/><use xlink:href="#29" y="10.855"/><use xlink:href="#30" y="13.026"/><use xlink:href="#31" y="15.197"/><use xlink:href="#33" y="17.368"/><use xlink:href="#34" y="19.539"/><use xlink:href="#35" y="21.71"/><use xlink:href="#36" y="23.881"/><use xlink:href="#37" y="26.052"/><use xlink:href="#38" y="28.223"/><use xlink:href="#39" y="30.394"/></svg><svg x="5624"><use xlink:href="#a"/><use xlink:href="#b" x="26.996" y="32.54"/><use xlink:href="#11"/><use xlink:href="#13" y="2.171"/><use xlink:href="#15" y="4.342"/><use xlink:href="#18" y="6.513"/><use xlink:href="#27" y="8.684"/><use xlink:href="#29" y="10.855"/><use xlink:href="#30" y="13.026"/><use xlink:href="#31" y="15.197"/><use xlink:href="#33" y="17.368"/><use xlink:href="#34" y="19.539"/><use xlink:href="#35" y="21.71"/><use xlink:href="#36" y="23.881"/><use xlink:href="#37" y="26.052"/><use xlink:href="#38" y="28.223"/><use xlink:href="#39" y="30.394"/><use xlink:href="#1" y="32.565"/></svg><svg x="5698"><use xlink:href="#a"/><use xlink:href="#b" x="26.996" y="32.54"/><use xlink:href="#11"/><use xlink:href="#13" y="2.171"/><use xlink:href="#15" y="4.342"/><use xlink:href="#18" y="6.513"/><use xlink:href="#27" y="8.684"/><use xlink:href="#29" y="10.855"/><use xlink:href="#30" y="13.026"/><use xlink:href="#31" y="15.197"/><use xlink:href="#33" y="17.368"/><use xlink:href="#34" y="19.539"/><use xlink:href="#35" y="21.71"/><use xlink:href="#36" y="23.881"/><use xlink:href="#37" y="26.052"/><use xlink:href="#38" y="28.223"/><use xlink:href="#39" y="30.394"/><use xlink:href="#1" y="32.565"/></svg><svg x="5772"><use xlink:href="#a"/><use xlink:href="#b" x="-.004" y="32.54"/><use xlink:href="#13"/><use xlink:href="#15" y="2.171"/><use xlink:href="#18" y="4.342"/><use xlink:href="#27" y="6.513"/><use xlink:href="#29" y="8.684"/><use xlink:href="#30" y="10.855"/><use xlink:href="#31" y="13.026"/><use xlink:href="#33" y="15.197"/><use xlink:href="#34" y="17.368"/><use xlink:href="#35" y="19.539"/><use xlink:href="#36" y="21.71"/><use xlink:href="#37" y="23.881"/><use xlink:href="#38" y="26.052"/><use xlink:href="#39" y="28.223"/><use xlink:href="#1" y="30.394"/></svg></svg></g></g></svg></svg>