<svg xmlns="http://www.w3.org/2000/svg" xmlns:xlink="http://www.w3.org/1999/xlink" width="840" height="581.04"><rect width="840" height="581.04" rx="5" ry="5" class="a"/><svg y="0%" x="0%"><circle cx="20" cy="20" r="6" fill="#ff5f58"/><circle cx="40" cy="20" r="6" fill="#ffbd2e"/><circle cx="60" cy="20" r="6" fill="#18c132"/></svg><svg height="521.04" viewBox="0 0 80 52.104" width="800" x="15" xmlns="http://www.w3.org/2000/svg" xmlns:xlink="http://www.w3.org/1999/xlink" y="50"><style>@keyframes u{0%{transform:translateX(0)}.62%{transform:translateX(-80px)}2.25%{transform:translateX(-160px)}2.26%{transform:translateX(-320px)}2.28%{transform:translateX(-400px)}2.52%{transform:translateX(-640px)}4.5%{transform:translateX(-720px)}7.02%{transform:translateX(-800px)}7.72%{transform:translateX(-880px)}8.35%{transform:translateX(-960px)}9.61%{transform:translateX(-1040px)}9.98%{transform:translateX(-1120px)}12.53%{transform:translateX(-1200px)}16.73%{transform:translateX(-1280px)}17.35%{transform:translateX(-1360px)}17.98%{transform:translateX(-1440px)}18.49%{transform:translateX(-1520px)}19.79%{transform:translateX(-1600px)}19.8%{transform:translateX(-1760px)}20.73%{transform:translateX(-1840px)}25.02%{transform:translateX(-2000px)}25.65%{transform:translateX(-2160px)}26.4%{transform:translateX(-2320px)}28.93%{transform:translateX(-2560px)}28.94%{transform:translateX(-2640px)}32.76%{transform:translateX(-2800px)}36.94%{transform:translateX(-3040px)}38.76%{transform:translateX(-3200px)}40.94%{transform:translateX(-3360px)}40.95%{transform:translateX(-3440px)}45.15%{transform:translateX(-3600px)}50.84%{transform:translateX(-3680px)}50.85%{transform:translateX(-3920px)}55.01%{transform:translateX(-4000px)}56.15%{transform:translateX(-4080px)}56.88%{transform:translateX(-4160px)}58.9%{transform:translateX(-4320px)}61.36%{transform:translateX(-4400px)}62.06%{transform:translateX(-4480px)}62.8%{transform:translateX(-4560px)}63.5%{transform:translateX(-4640px)}64.19%{transform:translateX(-4720px)}64.89%{transform:translateX(-4800px)}65.58%{transform:translateX(-4880px)}66.27%{transform:translateX(-4960px)}66.77%{transform:translateX(-5040px)}67.2%{transform:translateX(-5120px)}74.23%{transform:translateX(-5200px)}74.25%{transform:translateX(-5440px)}74.27%{transform:translateX(-5520px)}74.5%{transform:translateX(-5760px)}80.61%{transform:translateX(-5840px)}81.1%{transform:translateX(-5920px)}81.69%{transform:translateX(-6000px)}82.37%{transform:translateX(-6080px)}82.74%{transform:translateX(-6160px)}83.82%{transform:translateX(-6240px)}83.83%{transform:translateX(-6320px)}83.84%{transform:translateX(-6400px)}83.85%{transform:translateX(-6480px)}83.86%{transform:translateX(-6720px)}83.87%{transform:translateX(-6800px)}84.2%{transform:translateX(-6960px)}to{transform:translateX(-7040px)}}.a{fill:#fff}.f,.g{white-space:pre}.f{fill:#25bc24;font-weight:700}.g{fill:#33bbc8}.g,.h,.i{font-weight:700}.h{fill:#492ee1;white-space:pre}.i{fill:#c23621}.i,.j,.k,.l,.m{white-space:pre}.j{fill:#adad27;font-weight:700}.k,.l,.m{fill:#000}.l,.m{fill:#33bbc8}.m{fill:#000;font-weight:700}.n{fill:#818383}.n,.o,.p,.q,.r{white-space:pre}.o{fill:#33bbc8;text-decoration:underline}.p,.q,.r{fill:#25bc24}.q,.r{fill:#14f0f0}.r{fill:#492ee1}</style><g font-family="Monaco,Consolas,Menlo,'Bitstream Vera Sans Mono','Powerline Symbols',monospace" font-size="1.67"><defs><symbol id="1"><text y="1.67" class="f">➜</text><text x="3.006" y="1.67" class="g">lint-cli</text><text x="12.024" y="1.67" class="h">git:(</text><text x="17.034" y="1.67" class="i">master</text><text x="23.046" y="1.67" class="h">)</text><text x="25.05" y="1.67" class="j">✗</text></symbol><symbol id="2"><text y="1.67" class="f">➜</text><text x="3.006" y="1.67" class="g">lint-cli</text><text x="12.024" y="1.67" class="h">git:(</text><text x="17.034" y="1.67" class="i">master</text><text x="23.046" y="1.67" class="h">)</text><text x="25.05" y="1.67" class="j">✗</text><text x="27.054" y="1.67" class="k">create-lint</text></symbol><symbol id="3"><text y="1.67" class="l">?</text><text x="2.004" y="1.67" class="m">Pick</text><text x="7.014" y="1.67" class="m">a</text><text x="9.018" y="1.67" class="m">eslint</text><text x="16.032" y="1.67" class="m">preset</text><text x="23.046" y="1.67" class="n">›</text><text x="25.05" y="1.67" class="n">-</text><text x="27.054" y="1.67" class="n">Use</text><text x="31.062" y="1.67" class="n">arrow-keys.</text><text x="43.086" y="1.67" class="n">Return</text><text x="50.1" y="1.67" class="n">to</text><text x="53.106" y="1.67" class="n">submit.</text></symbol><symbol id="4"><text y="1.67" class="l">❯</text><text x="4.008" y="1.67" class="o">none</text></symbol><symbol id="5"><text x="4.008" y="1.67" class="k">basic</text></symbol><symbol id="6"><text x="4.008" y="1.67" class="k">typescript</text></symbol><symbol id="7"><text x="4.008" y="1.67" class="k">vue</text></symbol><symbol id="8"><text x="4.008" y="1.67" class="k">react</text></symbol><symbol id="9"><text x="4.008" y="1.67" class="k">none</text></symbol><symbol id="10"><text y="1.67" class="l">❯</text><text x="4.008" y="1.67" class="o">basic</text></symbol><symbol id="11"><text y="1.67" class="p">✔</text><text x="2.004" y="1.67" class="m">Pick</text><text x="7.014" y="1.67" class="m">a</text><text x="9.018" y="1.67" class="m">eslint</text><text x="16.032" y="1.67" class="m">preset</text><text x="23.046" y="1.67" class="n">›</text><text x="25.05" y="1.67" class="k">vue</text></symbol><symbol id="12"><text y="1.67" class="l">?</text><text x="2.004" y="1.67" class="m">Pick</text><text x="7.014" y="1.67" class="m">a</text><text x="9.018" y="1.67" class="m">stylelint</text><text x="19.038" y="1.67" class="m">preset</text><text x="26.052" y="1.67" class="n">›</text><text x="28.056" y="1.67" class="n">-</text><text x="30.06" y="1.67" class="n">Use</text><text x="34.068" y="1.67" class="n">arrow-keys.</text><text x="46.092" y="1.67" class="n">Return</text><text x="53.106" y="1.67" class="n">to</text><text x="56.112" y="1.67" class="n">submit.</text></symbol><symbol id="13"><text y="1.67" class="p">✔</text><text x="2.004" y="1.67" class="m">Pick</text><text x="7.014" y="1.67" class="m">a</text><text x="9.018" y="1.67" class="m">stylelint</text><text x="19.038" y="1.67" class="m">preset</text><text x="26.052" y="1.67" class="n">›</text><text x="28.056" y="1.67" class="k">basic</text></symbol><symbol id="14"><text y="1.67" class="l">?</text><text x="2.004" y="1.67" class="m">Pick</text><text x="7.014" y="1.67" class="m">a</text><text x="9.018" y="1.67" class="m">commit</text><text x="16.032" y="1.67" class="m">preset</text><text x="23.046" y="1.67" class="n">›</text><text x="25.05" y="1.67" class="n">-</text><text x="27.054" y="1.67" class="n">Use</text><text x="31.062" y="1.67" class="n">arrow-keys.</text><text x="43.086" y="1.67" class="n">Return</text><text x="50.1" y="1.67" class="n">to</text><text x="53.106" y="1.67" class="n">submit.</text></symbol><symbol id="15"><text y="1.67" class="p">✔</text><text x="2.004" y="1.67" class="m">Pick</text><text x="7.014" y="1.67" class="m">a</text><text x="9.018" y="1.67" class="m">commit</text><text x="16.032" y="1.67" class="m">preset</text><text x="23.046" y="1.67" class="n">›</text><text x="25.05" y="1.67" class="k">basic</text></symbol><symbol id="16"><text y="1.67" class="l">?</text><text x="2.004" y="1.67" class="m">Pick</text><text x="7.014" y="1.67" class="m">a</text><text x="9.018" y="1.67" class="m">release</text><text x="17.034" y="1.67" class="m">preset</text><text x="24.048" y="1.67" class="n">›</text><text x="26.052" y="1.67" class="n">-</text><text x="28.056" y="1.67" class="n">Use</text><text x="32.064" y="1.67" class="n">arrow-keys.</text><text x="44.088" y="1.67" class="n">Return</text><text x="51.102" y="1.67" class="n">to</text><text x="54.108" y="1.67" class="n">submit.</text></symbol><symbol id="17"><text x="4.008" y="1.67" class="k">release-it</text></symbol><symbol id="18"><text y="1.67" class="p">✔</text><text x="2.004" y="1.67" class="m">Pick</text><text x="7.014" y="1.67" class="m">a</text><text x="9.018" y="1.67" class="m">release</text><text x="17.034" y="1.67" class="m">preset</text><text x="24.048" y="1.67" class="n">›</text><text x="26.052" y="1.67" class="k">changesets</text></symbol><symbol id="19"><text y="1.67" class="l">?</text><text x="2.004" y="1.67" class="m">Pick</text><text x="7.014" y="1.67" class="m">files</text><text x="13.026" y="1.67" class="m">preset</text><text x="20.04" y="1.67" class="n">›</text><text x="22.044" y="1.67" class="n">-</text><text x="24.048" y="1.67" class="n">Space</text><text x="30.06" y="1.67" class="n">to</text><text x="33.066" y="1.67" class="n">select.</text><text x="41.082" y="1.67" class="n">Return</text><text x="48.096" y="1.67" class="n">to</text><text x="51.102" y="1.67" class="n">submit</text></symbol><symbol id="20"><text y="1.67" class="k">Instructions:</text></symbol><symbol id="21"><text x="4.008" y="1.67" class="k">↑/↓:</text><text x="9.018" y="1.67" class="k">Highlight</text><text x="19.038" y="1.67" class="k">option</text></symbol><symbol id="22"><text x="4.008" y="1.67" class="k">←/→/[space]:</text><text x="17.034" y="1.67" class="k">Toggle</text><text x="24.048" y="1.67" class="k">selection</text></symbol><symbol id="23"><text x="4.008" y="1.67" class="k">a:</text><text x="7.014" y="1.67" class="k">Toggle</text><text x="14.028" y="1.67" class="k">all</text></symbol><symbol id="24"><text x="4.008" y="1.67" class="k">enter/return:</text><text x="18.036" y="1.67" class="k">Complete</text><text x="27.054" y="1.67" class="k">answer</text></symbol><symbol id="25"><text y="1.67" class="k">◯</text><text x="4.008" y="1.67" class="k">.gitignore</text></symbol><symbol id="26"><text y="1.67" class="p">◉</text><text x="4.008" y="1.67" class="k">.editorconfig</text></symbol><symbol id="27"><text y="1.67" class="p">✔</text><text x="2.004" y="1.67" class="m">Pick</text><text x="7.014" y="1.67" class="m">files</text><text x="13.026" y="1.67" class="m">preset</text><text x="20.04" y="1.67" class="n">›</text><text x="22.044" y="1.67" class="k">.editorconfig,</text><text x="37.074" y="1.67" class="k">.gitignore</text></symbol><symbol id="28"><text y="1.67" class="k">Progress:</text><text x="10.02" y="1.67" class="k">resolved</text><text x="19.038" y="1.67" class="q">175</text><text x="22.044" y="1.67" class="k">,</text><text x="24.048" y="1.67" class="k">reused</text><text x="31.062" y="1.67" class="q">175</text><text x="34.068" y="1.67" class="k">,</text><text x="36.072" y="1.67" class="k">downloaded</text><text x="47.094" y="1.67" class="q">0</text><text x="48.096" y="1.67" class="k">,</text><text x="50.1" y="1.67" class="k">added</text><text x="56.112" y="1.67" class="q">0</text></symbol><symbol id="29"><text y="1.67" class="k">Already</text><text x="8.016" y="1.67" class="k">up-to-date</text></symbol><symbol id="30"><text y="1.67" class="k">Progress:</text><text x="10.02" y="1.67" class="k">resolved</text><text x="19.038" y="1.67" class="q">197</text><text x="22.044" y="1.67" class="k">,</text><text x="24.048" y="1.67" class="k">reused</text><text x="31.062" y="1.67" class="q">197</text><text x="34.068" y="1.67" class="k">,</text><text x="36.072" y="1.67" class="k">downloaded</text><text x="47.094" y="1.67" class="q">0</text><text x="48.096" y="1.67" class="k">,</text><text x="50.1" y="1.67" class="k">added</text><text x="56.112" y="1.67" class="q">0</text><text x="57.114" y="1.67" class="k">,</text><text x="59.118" y="1.67" class="k">done</text></symbol><symbol id="31"><text y="1.67" class="r">✨</text><text x="2.004" y="1.67" class="r">created</text><text x="10.02" y="1.67" class="r">success.</text><text x="19.038" y="1.67" class="r">✨</text></symbol><symbol id="32"><text y="1.67" class="f">➜</text><text x="3.006" y="1.67" class="g">lint-cli</text><text x="12.024" y="1.67" class="h">git:(</text><text x="17.034" y="1.67" class="i">master</text><text x="23.046" y="1.67" class="h">)</text><text x="25.05" y="1.67" class="j">✗</text><text x="27.054" y="1.67" class="k">ls</text></symbol><symbol id="33"><text y="1.67" class="f">➜</text><text x="3.006" y="1.67" class="g">lint-cli</text><text x="12.024" y="1.67" class="h">git:(</text><text x="17.034" y="1.67" class="i">master</text><text x="23.046" y="1.67" class="h">)</text><text x="25.05" y="1.67" class="j">✗</text><text x="27.054" y="1.67" class="k">ls</text><text x="30.06" y="1.67" class="k">-a</text></symbol><symbol id="34"><text y="1.67" class="g">.</text><text x="17.034" y="1.67" class="k">.editorconfig</text><text x="34.068" y="1.67" class="g">.husky</text><text x="51.102" y="1.67" class="k">.stylelintrc.js</text></symbol><symbol id="35"><text y="1.67" class="g">..</text><text x="17.034" y="1.67" class="k">.eslintignore</text><text x="34.068" y="1.67" class="k">.lintstagedrc.js</text><text x="51.102" y="1.67" class="g">node_modules</text></symbol><symbol id="36"><text y="1.67" class="g">.changeset</text><text x="17.034" y="1.67" class="k">.eslintrc.js</text><text x="34.068" y="1.67" class="k">.prettierignore</text><text x="51.102" y="1.67" class="k">package.json</text></symbol><symbol id="37"><text y="1.67" class="k">.commitlintrc.js</text><text x="17.034" y="1.67" class="g">.git</text><text x="34.068" y="1.67" class="k">.prettierrc.js</text><text x="51.102" y="1.67" class="k">play.cast</text></symbol><symbol id="38"><text y="1.67" class="k">.czrc</text><text x="17.034" y="1.67" class="k">.gitignore</text><text x="34.068" y="1.67" class="k">.stylelintignore</text><text x="51.102" y="1.67" class="k">pnpm-lock.yaml</text></symbol><symbol id="a"><path fill="transparent" d="M0 0h80v24H0z"/></symbol><symbol id="b"><path fill="#929292" d="M0 0h1.102v2.171H0z"/></symbol></defs><path class="a" d="M0 0h80v52.104H0z"/><g style="animation-duration:28.956345s;animation-iteration-count:infinite;animation-name:u;animation-timing-function:steps(1,end)"><svg width="7120"><svg><use xlink:href="#a"/><use xlink:href="#b" x="-.004"/></svg><svg x="80"><use xlink:href="#a"/><use xlink:href="#b" x="-.004"/></svg><svg x="160"><use xlink:href="#a"/><use xlink:href="#b" x="-.004"/></svg><svg x="240"><use xlink:href="#a"/><use xlink:href="#b" x="-.004"/></svg><svg x="320"><use xlink:href="#a"/><use xlink:href="#b" x="-.004"/></svg><svg x="400"><use xlink:href="#a"/><use xlink:href="#b" x="-.004"/></svg><svg x="480"><use xlink:href="#a"/><use xlink:href="#b" x="26.996"/><use xlink:href="#1"/></svg><svg x="560"><use xlink:href="#a"/><use xlink:href="#b" x="26.996"/><use xlink:href="#1"/></svg><svg x="640"><use xlink:href="#a"/><use xlink:href="#b" x="26.996"/><use xlink:href="#1"/></svg><svg x="720"><use xlink:href="#a"/><use xlink:href="#b" x="27.996"/><text y="1.67" class="f">➜</text><text x="3.006" y="1.67" class="g">lint-cli</text><text x="12.024" y="1.67" class="h">git:(</text><text x="17.034" y="1.67" class="i">master</text><text x="23.046" y="1.67" class="h">)</text><text x="25.05" y="1.67" class="j">✗</text><text x="27.054" y="1.67" class="k">c</text></svg><svg x="800"><use xlink:href="#a"/><use xlink:href="#b" x="28.996"/><text y="1.67" class="f">➜</text><text x="3.006" y="1.67" class="g">lint-cli</text><text x="12.024" y="1.67" class="h">git:(</text><text x="17.034" y="1.67" class="i">master</text><text x="23.046" y="1.67" class="h">)</text><text x="25.05" y="1.67" class="j">✗</text><text x="27.054" y="1.67" class="k">cr</text></svg><svg x="880"><use xlink:href="#a"/><use xlink:href="#b" x="29.996"/><text y="1.67" class="f">➜</text><text x="3.006" y="1.67" class="g">lint-cli</text><text x="12.024" y="1.67" class="h">git:(</text><text x="17.034" y="1.67" class="i">master</text><text x="23.046" y="1.67" class="h">)</text><text x="25.05" y="1.67" class="j">✗</text><text x="27.054" y="1.67" class="k">cre</text></svg><svg x="960"><use xlink:href="#a"/><use xlink:href="#b" x="30.996"/><text y="1.67" class="f">➜</text><text x="3.006" y="1.67" class="g">lint-cli</text><text x="12.024" y="1.67" class="h">git:(</text><text x="17.034" y="1.67" class="i">master</text><text x="23.046" y="1.67" class="h">)</text><text x="25.05" y="1.67" class="j">✗</text><text x="27.054" y="1.67" class="k">crea</text></svg><svg x="1040"><use xlink:href="#a"/><use xlink:href="#b" x="31.996"/><text y="1.67" class="f">➜</text><text x="3.006" y="1.67" class="g">lint-cli</text><text x="12.024" y="1.67" class="h">git:(</text><text x="17.034" y="1.67" class="i">master</text><text x="23.046" y="1.67" class="h">)</text><text x="25.05" y="1.67" class="j">✗</text><text x="27.054" y="1.67" class="k">creat</text></svg><svg x="1120"><use xlink:href="#a"/><use xlink:href="#b" x="32.996"/><text y="1.67" class="f">➜</text><text x="3.006" y="1.67" class="g">lint-cli</text><text x="12.024" y="1.67" class="h">git:(</text><text x="17.034" y="1.67" class="i">master</text><text x="23.046" y="1.67" class="h">)</text><text x="25.05" y="1.67" class="j">✗</text><text x="27.054" y="1.67" class="k">create</text></svg><svg x="1200"><use xlink:href="#a"/><use xlink:href="#b" x="33.996"/><text y="1.67" class="f">➜</text><text x="3.006" y="1.67" class="g">lint-cli</text><text x="12.024" y="1.67" class="h">git:(</text><text x="17.034" y="1.67" class="i">master</text><text x="23.046" y="1.67" class="h">)</text><text x="25.05" y="1.67" class="j">✗</text><text x="27.054" y="1.67" class="k">create-</text></svg><svg x="1280"><use xlink:href="#a"/><use xlink:href="#b" x="34.996"/><text y="1.67" class="f">➜</text><text x="3.006" y="1.67" class="g">lint-cli</text><text x="12.024" y="1.67" class="h">git:(</text><text x="17.034" y="1.67" class="i">master</text><text x="23.046" y="1.67" class="h">)</text><text x="25.05" y="1.67" class="j">✗</text><text x="27.054" y="1.67" class="k">create-l</text></svg><svg x="1360"><use xlink:href="#a"/><use xlink:href="#b" x="35.996"/><text y="1.67" class="f">➜</text><text x="3.006" y="1.67" class="g">lint-cli</text><text x="12.024" y="1.67" class="h">git:(</text><text x="17.034" y="1.67" class="i">master</text><text x="23.046" y="1.67" class="h">)</text><text x="25.05" y="1.67" class="j">✗</text><text x="27.054" y="1.67" class="k">create-li</text></svg><svg x="1440"><use xlink:href="#a"/><use xlink:href="#b" x="36.996"/><text y="1.67" class="f">➜</text><text x="3.006" y="1.67" class="g">lint-cli</text><text x="12.024" y="1.67" class="h">git:(</text><text x="17.034" y="1.67" class="i">master</text><text x="23.046" y="1.67" class="h">)</text><text x="25.05" y="1.67" class="j">✗</text><text x="27.054" y="1.67" class="k">create-lin</text></svg><svg x="1520"><use xlink:href="#a"/><use xlink:href="#b" x="37.996"/><use xlink:href="#2"/></svg><svg x="1600"><use xlink:href="#a"/><use xlink:href="#b" x="37.996"/><use xlink:href="#2"/></svg><svg x="1680"><use xlink:href="#a"/><use xlink:href="#b" x="-.004" y="2.146"/><use xlink:href="#2"/></svg><svg x="1760"><use xlink:href="#a"/><use xlink:href="#b" x="-.004" y="2.146"/><use xlink:href="#2"/></svg><svg x="1840"><use xlink:href="#a"/><use xlink:href="#2"/><use xlink:href="#3" y="2.171"/><use xlink:href="#4" y="4.342"/><use xlink:href="#5" y="6.513"/><use xlink:href="#6" y="8.684"/><use xlink:href="#7" y="10.855"/><use xlink:href="#8" y="13.026"/></svg><svg x="1920"><use xlink:href="#a"/><use xlink:href="#2"/></svg><svg x="2000"><use xlink:href="#a"/><use xlink:href="#2"/><use xlink:href="#3" y="2.171"/><use xlink:href="#9" y="4.342"/><use xlink:href="#10" y="6.513"/><use xlink:href="#6" y="8.684"/><use xlink:href="#7" y="10.855"/><use xlink:href="#8" y="13.026"/></svg><svg x="2080"><use xlink:href="#a"/><use xlink:href="#2"/></svg><svg x="2160"><use xlink:href="#a"/><use xlink:href="#2"/><use xlink:href="#3" y="2.171"/><use xlink:href="#9" y="4.342"/><use xlink:href="#5" y="6.513"/><text y="10.354" class="l">❯</text><text x="4.008" y="10.354" class="o">typescript</text><use xlink:href="#7" y="10.855"/><use xlink:href="#8" y="13.026"/></svg><svg x="2240"><use xlink:href="#a"/><use xlink:href="#2"/></svg><svg x="2320"><use xlink:href="#a"/><use xlink:href="#2"/><use xlink:href="#3" y="2.171"/><use xlink:href="#9" y="4.342"/><use xlink:href="#5" y="6.513"/><use xlink:href="#6" y="8.684"/><text y="12.525" class="l">❯</text><text x="4.008" y="12.525" class="o">vue</text><use xlink:href="#8" y="13.026"/></svg><svg x="2400"><use xlink:href="#a"/><use xlink:href="#2"/></svg><svg x="2480"><use xlink:href="#a"/><use xlink:href="#b" x="-.004" y="4.317"/><use xlink:href="#2"/><use xlink:href="#11" y="2.171"/></svg><svg x="2560"><use xlink:href="#a"/><use xlink:href="#2"/><use xlink:href="#11" y="2.171"/></svg><svg x="2640"><use xlink:href="#a"/><use xlink:href="#2"/><use xlink:href="#11" y="2.171"/><use xlink:href="#12" y="4.342"/><use xlink:href="#4" y="6.513"/><use xlink:href="#5" y="8.684"/></svg><svg x="2720"><use xlink:href="#a"/><use xlink:href="#2"/><use xlink:href="#11" y="2.171"/></svg><svg x="2800"><use xlink:href="#a"/><use xlink:href="#2"/><use xlink:href="#11" y="2.171"/><use xlink:href="#12" y="4.342"/><use xlink:href="#9" y="6.513"/><use xlink:href="#10" y="8.684"/></svg><svg x="2880"><use xlink:href="#a"/><use xlink:href="#2"/><use xlink:href="#11" y="2.171"/></svg><svg x="2960"><use xlink:href="#a"/><use xlink:href="#b" x="-.004" y="6.488"/><use xlink:href="#2"/><use xlink:href="#11" y="2.171"/><use xlink:href="#13" y="4.342"/></svg><svg x="3040"><use xlink:href="#a"/><use xlink:href="#2"/><use xlink:href="#11" y="2.171"/><use xlink:href="#13" y="4.342"/><use xlink:href="#14" y="6.513"/><use xlink:href="#4" y="8.684"/><use xlink:href="#5" y="10.855"/></svg><svg x="3120"><use xlink:href="#a"/><use xlink:href="#2"/><use xlink:href="#11" y="2.171"/><use xlink:href="#13" y="4.342"/></svg><svg x="3200"><use xlink:href="#a"/><use xlink:href="#2"/><use xlink:href="#11" y="2.171"/><use xlink:href="#13" y="4.342"/><use xlink:href="#14" y="6.513"/><use xlink:href="#9" y="8.684"/><use xlink:href="#10" y="10.855"/></svg><svg x="3280"><use xlink:href="#a"/><use xlink:href="#2"/><use xlink:href="#11" y="2.171"/><use xlink:href="#13" y="4.342"/></svg><svg x="3360"><use xlink:href="#a"/><use xlink:href="#b" x="-.004" y="8.659"/><use xlink:href="#2"/><use xlink:href="#11" y="2.171"/><use xlink:href="#13" y="4.342"/><use xlink:href="#15" y="6.513"/></svg><svg x="3440"><use xlink:href="#a"/><use xlink:href="#2"/><use xlink:href="#11" y="2.171"/><use xlink:href="#13" y="4.342"/><use xlink:href="#15" y="6.513"/><use xlink:href="#16" y="8.684"/><use xlink:href="#4" y="10.855"/><text x="4.008" y="14.696" class="k">changesets</text><use xlink:href="#17" y="15.197"/></svg><svg x="3520"><use xlink:href="#a"/><use xlink:href="#2"/><use xlink:href="#11" y="2.171"/><use xlink:href="#13" y="4.342"/><use xlink:href="#15" y="6.513"/></svg><svg x="3600"><use xlink:href="#a"/><use xlink:href="#2"/><use xlink:href="#11" y="2.171"/><use xlink:href="#13" y="4.342"/><use xlink:href="#15" y="6.513"/><use xlink:href="#16" y="8.684"/><use xlink:href="#9" y="10.855"/><text y="14.696" class="l">❯</text><text x="4.008" y="14.696" class="o">changesets</text><use xlink:href="#17" y="15.197"/></svg><svg x="3680"><use xlink:href="#a"/><use xlink:href="#2"/><use xlink:href="#11" y="2.171"/><use xlink:href="#13" y="4.342"/><use xlink:href="#15" y="6.513"/></svg><svg x="3760"><use xlink:href="#a"/><use xlink:href="#b" x="-.004" y="10.83"/><use xlink:href="#2"/><use xlink:href="#11" y="2.171"/><use xlink:href="#13" y="4.342"/><use xlink:href="#15" y="6.513"/><use xlink:href="#18" y="8.684"/></svg><svg x="3840"><use xlink:href="#a"/><use xlink:href="#2"/><use xlink:href="#11" y="2.171"/><use xlink:href="#13" y="4.342"/><use xlink:href="#15" y="6.513"/><use xlink:href="#18" y="8.684"/></svg><svg x="3920"><use xlink:href="#a"/><use xlink:href="#2"/><use xlink:href="#11" y="2.171"/><use xlink:href="#13" y="4.342"/><use xlink:href="#15" y="6.513"/><use xlink:href="#18" y="8.684"/><use xlink:href="#19" y="10.855"/><use xlink:href="#20" y="13.026"/><use xlink:href="#21" y="15.197"/><use xlink:href="#22" y="17.368"/><use xlink:href="#23" y="19.539"/><use xlink:href="#24" y="21.71"/><text y="25.551" class="k">◯</text><text x="4.008" y="25.551" class="o">.editorconfig</text><use xlink:href="#25" y="26.052"/></svg><svg x="4000"><use xlink:href="#a"/><use xlink:href="#2"/><use xlink:href="#11" y="2.171"/><use xlink:href="#13" y="4.342"/><use xlink:href="#15" y="6.513"/><use xlink:href="#18" y="8.684"/><use xlink:href="#19" y="10.855"/><use xlink:href="#20" y="13.026"/><use xlink:href="#21" y="15.197"/><use xlink:href="#22" y="17.368"/><use xlink:href="#23" y="19.539"/><use xlink:href="#24" y="21.71"/><text y="25.551" class="p">◉</text><text x="4.008" y="25.551" class="o">.editorconfig</text><use xlink:href="#25" y="26.052"/></svg><svg x="4080"><use xlink:href="#a"/><use xlink:href="#2"/><use xlink:href="#11" y="2.171"/><use xlink:href="#13" y="4.342"/><use xlink:href="#15" y="6.513"/><use xlink:href="#18" y="8.684"/><use xlink:href="#19" y="10.855"/><use xlink:href="#20" y="13.026"/><use xlink:href="#21" y="15.197"/><use xlink:href="#22" y="17.368"/><use xlink:href="#23" y="19.539"/><use xlink:href="#24" y="21.71"/><use xlink:href="#26" y="23.881"/><text y="27.722" class="k">◯</text><text x="4.008" y="27.722" class="o">.gitignore</text></svg><svg x="4160"><use xlink:href="#a"/><use xlink:href="#2"/><use xlink:href="#11" y="2.171"/><use xlink:href="#13" y="4.342"/><use xlink:href="#15" y="6.513"/><use xlink:href="#18" y="8.684"/><use xlink:href="#19" y="10.855"/><use xlink:href="#20" y="13.026"/><use xlink:href="#21" y="15.197"/><use xlink:href="#22" y="17.368"/><use xlink:href="#23" y="19.539"/><use xlink:href="#24" y="21.71"/><use xlink:href="#26" y="23.881"/><text y="27.722" class="p">◉</text><text x="4.008" y="27.722" class="o">.gitignore</text></svg><svg x="4240"><use xlink:href="#a"/><use xlink:href="#2"/><use xlink:href="#11" y="2.171"/><use xlink:href="#13" y="4.342"/><use xlink:href="#15" y="6.513"/><use xlink:href="#18" y="8.684"/><use xlink:href="#27" y="10.855"/></svg><svg x="4320"><use xlink:href="#a"/><use xlink:href="#b" x="-.004" y="13.001"/><use xlink:href="#2"/><use xlink:href="#11" y="2.171"/><use xlink:href="#13" y="4.342"/><use xlink:href="#15" y="6.513"/><use xlink:href="#18" y="8.684"/><use xlink:href="#27" y="10.855"/></svg><svg x="4400"><use xlink:href="#a"/><use xlink:href="#b" x="-.004" y="15.172"/><use xlink:href="#2"/><use xlink:href="#11" y="2.171"/><use xlink:href="#13" y="4.342"/><use xlink:href="#15" y="6.513"/><use xlink:href="#18" y="8.684"/><use xlink:href="#27" y="10.855"/><text y="14.696" class="k">Progress:</text><text x="10.02" y="14.696" class="k">resolved</text><text x="19.038" y="14.696" class="q">1</text><text x="20.04" y="14.696" class="k">,</text><text x="22.044" y="14.696" class="k">reused</text><text x="29.058" y="14.696" class="q">0</text><text x="30.06" y="14.696" class="k">,</text><text x="32.064" y="14.696" class="k">downloaded</text><text x="43.086" y="14.696" class="q">0</text><text x="44.088" y="14.696" class="k">,</text><text x="46.092" y="14.696" class="k">added</text><text x="52.104" y="14.696" class="q">0</text></svg><svg x="4480"><use xlink:href="#a"/><use xlink:href="#b" x="-.004" y="15.172"/><use xlink:href="#2"/><use xlink:href="#11" y="2.171"/><use xlink:href="#13" y="4.342"/><use xlink:href="#15" y="6.513"/><use xlink:href="#18" y="8.684"/><use xlink:href="#27" y="10.855"/><text y="14.696" class="k">Progress:</text><text x="10.02" y="14.696" class="k">resolved</text><text x="19.038" y="14.696" class="q">7</text><text x="20.04" y="14.696" class="k">,</text><text x="22.044" y="14.696" class="k">reused</text><text x="29.058" y="14.696" class="q">7</text><text x="30.06" y="14.696" class="k">,</text><text x="32.064" y="14.696" class="k">downloaded</text><text x="43.086" y="14.696" class="q">0</text><text x="44.088" y="14.696" class="k">,</text><text x="46.092" y="14.696" class="k">added</text><text x="52.104" y="14.696" class="q">0</text></svg><svg x="4560"><use xlink:href="#a"/><use xlink:href="#b" x="-.004" y="15.172"/><use xlink:href="#2"/><use xlink:href="#11" y="2.171"/><use xlink:href="#13" y="4.342"/><use xlink:href="#15" y="6.513"/><use xlink:href="#18" y="8.684"/><use xlink:href="#27" y="10.855"/><text y="14.696" class="k">Progress:</text><text x="10.02" y="14.696" class="k">resolved</text><text x="19.038" y="14.696" class="q">13</text><text x="21.042" y="14.696" class="k">,</text><text x="23.046" y="14.696" class="k">reused</text><text x="30.06" y="14.696" class="q">13</text><text x="32.064" y="14.696" class="k">,</text><text x="34.068" y="14.696" class="k">downloaded</text><text x="45.09" y="14.696" class="q">0</text><text x="46.092" y="14.696" class="k">,</text><text x="48.096" y="14.696" class="k">added</text><text x="54.108" y="14.696" class="q">0</text></svg><svg x="4640"><use xlink:href="#a"/><use xlink:href="#b" x="-.004" y="15.172"/><use xlink:href="#2"/><use xlink:href="#11" y="2.171"/><use xlink:href="#13" y="4.342"/><use xlink:href="#15" y="6.513"/><use xlink:href="#18" y="8.684"/><use xlink:href="#27" y="10.855"/><text y="14.696" class="k">Progress:</text><text x="10.02" y="14.696" class="k">resolved</text><text x="19.038" y="14.696" class="q">65</text><text x="21.042" y="14.696" class="k">,</text><text x="23.046" y="14.696" class="k">reused</text><text x="30.06" y="14.696" class="q">65</text><text x="32.064" y="14.696" class="k">,</text><text x="34.068" y="14.696" class="k">downloaded</text><text x="45.09" y="14.696" class="q">0</text><text x="46.092" y="14.696" class="k">,</text><text x="48.096" y="14.696" class="k">added</text><text x="54.108" y="14.696" class="q">0</text></svg><svg x="4720"><use xlink:href="#a"/><use xlink:href="#b" x="-.004" y="15.172"/><use xlink:href="#2"/><use xlink:href="#11" y="2.171"/><use xlink:href="#13" y="4.342"/><use xlink:href="#15" y="6.513"/><use xlink:href="#18" y="8.684"/><use xlink:href="#27" y="10.855"/><text y="14.696" class="k">Progress:</text><text x="10.02" y="14.696" class="k">resolved</text><text x="19.038" y="14.696" class="q">117</text><text x="22.044" y="14.696" class="k">,</text><text x="24.048" y="14.696" class="k">reused</text><text x="31.062" y="14.696" class="q">117</text><text x="34.068" y="14.696" class="k">,</text><text x="36.072" y="14.696" class="k">downloaded</text><text x="47.094" y="14.696" class="q">0</text><text x="48.096" y="14.696" class="k">,</text><text x="50.1" y="14.696" class="k">added</text><text x="56.112" y="14.696" class="q">0</text></svg><svg x="4800"><use xlink:href="#a"/><use xlink:href="#b" x="-.004" y="15.172"/><use xlink:href="#2"/><use xlink:href="#11" y="2.171"/><use xlink:href="#13" y="4.342"/><use xlink:href="#15" y="6.513"/><use xlink:href="#18" y="8.684"/><use xlink:href="#27" y="10.855"/><text y="14.696" class="k">Progress:</text><text x="10.02" y="14.696" class="k">resolved</text><text x="19.038" y="14.696" class="q">141</text><text x="22.044" y="14.696" class="k">,</text><text x="24.048" y="14.696" class="k">reused</text><text x="31.062" y="14.696" class="q">141</text><text x="34.068" y="14.696" class="k">,</text><text x="36.072" y="14.696" class="k">downloaded</text><text x="47.094" y="14.696" class="q">0</text><text x="48.096" y="14.696" class="k">,</text><text x="50.1" y="14.696" class="k">added</text><text x="56.112" y="14.696" class="q">0</text></svg><svg x="4880"><use xlink:href="#a"/><use xlink:href="#b" x="-.004" y="15.172"/><use xlink:href="#2"/><use xlink:href="#11" y="2.171"/><use xlink:href="#13" y="4.342"/><use xlink:href="#15" y="6.513"/><use xlink:href="#18" y="8.684"/><use xlink:href="#27" y="10.855"/><text y="14.696" class="k">Progress:</text><text x="10.02" y="14.696" class="k">resolved</text><text x="19.038" y="14.696" class="q">143</text><text x="22.044" y="14.696" class="k">,</text><text x="24.048" y="14.696" class="k">reused</text><text x="31.062" y="14.696" class="q">143</text><text x="34.068" y="14.696" class="k">,</text><text x="36.072" y="14.696" class="k">downloaded</text><text x="47.094" y="14.696" class="q">0</text><text x="48.096" y="14.696" class="k">,</text><text x="50.1" y="14.696" class="k">added</text><text x="56.112" y="14.696" class="q">0</text></svg><svg x="4960"><use xlink:href="#a"/><use xlink:href="#b" x="-.004" y="15.172"/><use xlink:href="#2"/><use xlink:href="#11" y="2.171"/><use xlink:href="#13" y="4.342"/><use xlink:href="#15" y="6.513"/><use xlink:href="#18" y="8.684"/><use xlink:href="#27" y="10.855"/><use xlink:href="#28" y="13.026"/></svg><svg x="5040"><use xlink:href="#a"/><use xlink:href="#b" x="-.004" y="17.343"/><use xlink:href="#2"/><use xlink:href="#11" y="2.171"/><use xlink:href="#13" y="4.342"/><use xlink:href="#15" y="6.513"/><use xlink:href="#18" y="8.684"/><use xlink:href="#27" y="10.855"/><use xlink:href="#29" y="13.026"/><use xlink:href="#28" y="15.197"/></svg><svg x="5120"><use xlink:href="#a"/><use xlink:href="#b" x="-.004" y="17.343"/><use xlink:href="#2"/><use xlink:href="#11" y="2.171"/><use xlink:href="#13" y="4.342"/><use xlink:href="#15" y="6.513"/><use xlink:href="#18" y="8.684"/><use xlink:href="#27" y="10.855"/><use xlink:href="#29" y="13.026"/><use xlink:href="#30" y="15.197"/></svg><svg x="5200"><use xlink:href="#a"/><use xlink:href="#b" x="-.004" y="19.514"/><use xlink:href="#2"/><use xlink:href="#11" y="2.171"/><use xlink:href="#13" y="4.342"/><use xlink:href="#15" y="6.513"/><use xlink:href="#18" y="8.684"/><use xlink:href="#27" y="10.855"/><use xlink:href="#29" y="13.026"/><use xlink:href="#30" y="15.197"/><use xlink:href="#31" y="17.368"/></svg><svg x="5280"><use xlink:href="#a"/><use xlink:href="#b" x="-.004" y="19.514"/><use xlink:href="#2"/><use xlink:href="#11" y="2.171"/><use xlink:href="#13" y="4.342"/><use xlink:href="#15" y="6.513"/><use xlink:href="#18" y="8.684"/><use xlink:href="#27" y="10.855"/><use xlink:href="#29" y="13.026"/><use xlink:href="#30" y="15.197"/><use xlink:href="#31" y="17.368"/></svg><svg x="5360"><use xlink:href="#a"/><use xlink:href="#b" x="-.004" y="19.514"/><use xlink:href="#2"/><use xlink:href="#11" y="2.171"/><use xlink:href="#13" y="4.342"/><use xlink:href="#15" y="6.513"/><use xlink:href="#18" y="8.684"/><use xlink:href="#27" y="10.855"/><use xlink:href="#29" y="13.026"/><use xlink:href="#30" y="15.197"/><use xlink:href="#31" y="17.368"/></svg><svg x="5440"><use xlink:href="#a"/><use xlink:href="#b" x="-.004" y="19.514"/><use xlink:href="#2"/><use xlink:href="#11" y="2.171"/><use xlink:href="#13" y="4.342"/><use xlink:href="#15" y="6.513"/><use xlink:href="#18" y="8.684"/><use xlink:href="#27" y="10.855"/><use xlink:href="#29" y="13.026"/><use xlink:href="#30" y="15.197"/><use xlink:href="#31" y="17.368"/></svg><svg x="5520"><use xlink:href="#a"/><use xlink:href="#b" x="-.004" y="19.514"/><use xlink:href="#2"/><use xlink:href="#11" y="2.171"/><use xlink:href="#13" y="4.342"/><use xlink:href="#15" y="6.513"/><use xlink:href="#18" y="8.684"/><use xlink:href="#27" y="10.855"/><use xlink:href="#29" y="13.026"/><use xlink:href="#30" y="15.197"/><use xlink:href="#31" y="17.368"/></svg><svg x="5600"><use xlink:href="#a"/><use xlink:href="#b" x="26.996" y="19.514"/><use xlink:href="#2"/><use xlink:href="#11" y="2.171"/><use xlink:href="#13" y="4.342"/><use xlink:href="#15" y="6.513"/><use xlink:href="#18" y="8.684"/><use xlink:href="#27" y="10.855"/><use xlink:href="#29" y="13.026"/><use xlink:href="#30" y="15.197"/><use xlink:href="#31" y="17.368"/><use xlink:href="#1" y="19.539"/></svg><svg x="5680"><use xlink:href="#a"/><use xlink:href="#b" x="26.996" y="19.514"/><use xlink:href="#2"/><use xlink:href="#11" y="2.171"/><use xlink:href="#13" y="4.342"/><use xlink:href="#15" y="6.513"/><use xlink:href="#18" y="8.684"/><use xlink:href="#27" y="10.855"/><use xlink:href="#29" y="13.026"/><use xlink:href="#30" y="15.197"/><use xlink:href="#31" y="17.368"/><use xlink:href="#1" y="19.539"/></svg><svg x="5760"><use xlink:href="#a"/><use xlink:href="#b" x="26.996" y="19.514"/><use xlink:href="#2"/><use xlink:href="#11" y="2.171"/><use xlink:href="#13" y="4.342"/><use xlink:href="#15" y="6.513"/><use xlink:href="#18" y="8.684"/><use xlink:href="#27" y="10.855"/><use xlink:href="#29" y="13.026"/><use xlink:href="#30" y="15.197"/><use xlink:href="#31" y="17.368"/><use xlink:href="#1" y="19.539"/></svg><svg x="5840"><use xlink:href="#a"/><use xlink:href="#b" x="27.996" y="19.514"/><use xlink:href="#2"/><use xlink:href="#11" y="2.171"/><use xlink:href="#13" y="4.342"/><use xlink:href="#15" y="6.513"/><use xlink:href="#18" y="8.684"/><use xlink:href="#27" y="10.855"/><use xlink:href="#29" y="13.026"/><use xlink:href="#30" y="15.197"/><use xlink:href="#31" y="17.368"/><text y="21.209" class="f">➜</text><text x="3.006" y="21.209" class="g">lint-cli</text><text x="12.024" y="21.209" class="h">git:(</text><text x="17.034" y="21.209" class="i">master</text><text x="23.046" y="21.209" class="h">)</text><text x="25.05" y="21.209" class="j">✗</text><text x="27.054" y="21.209" class="k">l</text></svg><svg x="5920"><use xlink:href="#a"/><use xlink:href="#b" x="28.996" y="19.514"/><use xlink:href="#2"/><use xlink:href="#11" y="2.171"/><use xlink:href="#13" y="4.342"/><use xlink:href="#15" y="6.513"/><use xlink:href="#18" y="8.684"/><use xlink:href="#27" y="10.855"/><use xlink:href="#29" y="13.026"/><use xlink:href="#30" y="15.197"/><use xlink:href="#31" y="17.368"/><use xlink:href="#32" y="19.539"/></svg><svg x="6000"><use xlink:href="#a"/><use xlink:href="#b" x="29.996" y="19.514"/><use xlink:href="#2"/><use xlink:href="#11" y="2.171"/><use xlink:href="#13" y="4.342"/><use xlink:href="#15" y="6.513"/><use xlink:href="#18" y="8.684"/><use xlink:href="#27" y="10.855"/><use xlink:href="#29" y="13.026"/><use xlink:href="#30" y="15.197"/><use xlink:href="#31" y="17.368"/><use xlink:href="#32" y="19.539"/></svg><svg x="6080"><use xlink:href="#a"/><use xlink:href="#b" x="30.996" y="19.514"/><use xlink:href="#2"/><use xlink:href="#11" y="2.171"/><use xlink:href="#13" y="4.342"/><use xlink:href="#15" y="6.513"/><use xlink:href="#18" y="8.684"/><use xlink:href="#27" y="10.855"/><use xlink:href="#29" y="13.026"/><use xlink:href="#30" y="15.197"/><use xlink:href="#31" y="17.368"/><text y="21.209" class="f">➜</text><text x="3.006" y="21.209" class="g">lint-cli</text><text x="12.024" y="21.209" class="h">git:(</text><text x="17.034" y="21.209" class="i">master</text><text x="23.046" y="21.209" class="h">)</text><text x="25.05" y="21.209" class="j">✗</text><text x="27.054" y="21.209" class="k">ls</text><text x="30.06" y="21.209" class="k">-</text></svg><svg x="6160"><use xlink:href="#a"/><use xlink:href="#b" x="31.996" y="19.514"/><use xlink:href="#2"/><use xlink:href="#11" y="2.171"/><use xlink:href="#13" y="4.342"/><use xlink:href="#15" y="6.513"/><use xlink:href="#18" y="8.684"/><use xlink:href="#27" y="10.855"/><use xlink:href="#29" y="13.026"/><use xlink:href="#30" y="15.197"/><use xlink:href="#31" y="17.368"/><use xlink:href="#33" y="19.539"/></svg><svg x="6240"><use xlink:href="#a"/><use xlink:href="#b" x="31.996" y="19.514"/><use xlink:href="#2"/><use xlink:href="#11" y="2.171"/><use xlink:href="#13" y="4.342"/><use xlink:href="#15" y="6.513"/><use xlink:href="#18" y="8.684"/><use xlink:href="#27" y="10.855"/><use xlink:href="#29" y="13.026"/><use xlink:href="#30" y="15.197"/><use xlink:href="#31" y="17.368"/><use xlink:href="#33" y="19.539"/></svg><svg x="6320"><use xlink:href="#a"/><use xlink:href="#b" x="-.004" y="21.685"/><use xlink:href="#2"/><use xlink:href="#11" y="2.171"/><use xlink:href="#13" y="4.342"/><use xlink:href="#15" y="6.513"/><use xlink:href="#18" y="8.684"/><use xlink:href="#27" y="10.855"/><use xlink:href="#29" y="13.026"/><use xlink:href="#30" y="15.197"/><use xlink:href="#31" y="17.368"/><use xlink:href="#33" y="19.539"/></svg><svg x="6400"><use xlink:href="#a"/><use xlink:href="#b" x="-.004" y="21.685"/><use xlink:href="#2"/><use xlink:href="#11" y="2.171"/><use xlink:href="#13" y="4.342"/><use xlink:href="#15" y="6.513"/><use xlink:href="#18" y="8.684"/><use xlink:href="#27" y="10.855"/><use xlink:href="#29" y="13.026"/><use xlink:href="#30" y="15.197"/><use xlink:href="#31" y="17.368"/><use xlink:href="#33" y="19.539"/></svg><svg x="6480"><use xlink:href="#a"/><use xlink:href="#b" x="-.004" y="32.54"/><use xlink:href="#2"/><use xlink:href="#11" y="2.171"/><use xlink:href="#13" y="4.342"/><use xlink:href="#15" y="6.513"/><use xlink:href="#18" y="8.684"/><use xlink:href="#27" y="10.855"/><use xlink:href="#29" y="13.026"/><use xlink:href="#30" y="15.197"/><use xlink:href="#31" y="17.368"/><use xlink:href="#33" y="19.539"/><use xlink:href="#34" y="21.71"/><use xlink:href="#35" y="23.881"/><use xlink:href="#36" y="26.052"/><use xlink:href="#37" y="28.223"/><use xlink:href="#38" y="30.394"/></svg><svg x="6560"><use xlink:href="#a"/><use xlink:href="#b" x="-.004" y="32.54"/><use xlink:href="#2"/><use xlink:href="#11" y="2.171"/><use xlink:href="#13" y="4.342"/><use xlink:href="#15" y="6.513"/><use xlink:href="#18" y="8.684"/><use xlink:href="#27" y="10.855"/><use xlink:href="#29" y="13.026"/><use xlink:href="#30" y="15.197"/><use xlink:href="#31" y="17.368"/><use xlink:href="#33" y="19.539"/><use xlink:href="#34" y="21.71"/><use xlink:href="#35" y="23.881"/><use xlink:href="#36" y="26.052"/><use xlink:href="#37" y="28.223"/><use xlink:href="#38" y="30.394"/></svg><svg x="6640"><use xlink:href="#a"/><use xlink:href="#b" x="-.004" y="32.54"/><use xlink:href="#2"/><use xlink:href="#11" y="2.171"/><use xlink:href="#13" y="4.342"/><use xlink:href="#15" y="6.513"/><use xlink:href="#18" y="8.684"/><use xlink:href="#27" y="10.855"/><use xlink:href="#29" y="13.026"/><use xlink:href="#30" y="15.197"/><use xlink:href="#31" y="17.368"/><use xlink:href="#33" y="19.539"/><use xlink:href="#34" y="21.71"/><use xlink:href="#35" y="23.881"/><use xlink:href="#36" y="26.052"/><use xlink:href="#37" y="28.223"/><use xlink:href="#38" y="30.394"/></svg><svg x="6720"><use xlink:href="#a"/><use xlink:href="#b" x="-.004" y="32.54"/><use xlink:href="#2"/><use xlink:href="#11" y="2.171"/><use xlink:href="#13" y="4.342"/><use xlink:href="#15" y="6.513"/><use xlink:href="#18" y="8.684"/><use xlink:href="#27" y="10.855"/><use xlink:href="#29" y="13.026"/><use xlink:href="#30" y="15.197"/><use xlink:href="#31" y="17.368"/><use xlink:href="#33" y="19.539"/><use xlink:href="#34" y="21.71"/><use xlink:href="#35" y="23.881"/><use xlink:href="#36" y="26.052"/><use xlink:href="#37" y="28.223"/><use xlink:href="#38" y="30.394"/></svg><svg x="6800"><use xlink:href="#a"/><use xlink:href="#b" x="-.004" y="32.54"/><use xlink:href="#2"/><use xlink:href="#11" y="2.171"/><use xlink:href="#13" y="4.342"/><use xlink:href="#15" y="6.513"/><use xlink:href="#18" y="8.684"/><use xlink:href="#27" y="10.855"/><use xlink:href="#29" y="13.026"/><use xlink:href="#30" y="15.197"/><use xlink:href="#31" y="17.368"/><use xlink:href="#33" y="19.539"/><use xlink:href="#34" y="21.71"/><use xlink:href="#35" y="23.881"/><use xlink:href="#36" y="26.052"/><use xlink:href="#37" y="28.223"/><use xlink:href="#38" y="30.394"/></svg><svg x="6880"><use xlink:href="#a"/><use xlink:href="#b" x="26.996" y="32.54"/><use xlink:href="#2"/><use xlink:href="#11" y="2.171"/><use xlink:href="#13" y="4.342"/><use xlink:href="#15" y="6.513"/><use xlink:href="#18" y="8.684"/><use xlink:href="#27" y="10.855"/><use xlink:href="#29" y="13.026"/><use xlink:href="#30" y="15.197"/><use xlink:href="#31" y="17.368"/><use xlink:href="#33" y="19.539"/><use xlink:href="#34" y="21.71"/><use xlink:href="#35" y="23.881"/><use xlink:href="#36" y="26.052"/><use xlink:href="#37" y="28.223"/><use xlink:href="#38" y="30.394"/><use xlink:href="#1" y="32.565"/></svg><svg x="6960"><use xlink:href="#a"/><use xlink:href="#b" x="26.996" y="32.54"/><use xlink:href="#2"/><use xlink:href="#11" y="2.171"/><use xlink:href="#13" y="4.342"/><use xlink:href="#15" y="6.513"/><use xlink:href="#18" y="8.684"/><use xlink:href="#27" y="10.855"/><use xlink:href="#29" y="13.026"/><use xlink:href="#30" y="15.197"/><use xlink:href="#31" y="17.368"/><use xlink:href="#33" y="19.539"/><use xlink:href="#34" y="21.71"/><use xlink:href="#35" y="23.881"/><use xlink:href="#36" y="26.052"/><use xlink:href="#37" y="28.223"/><use xlink:href="#38" y="30.394"/><use xlink:href="#1" y="32.565"/></svg><svg x="7040"><use xlink:href="#a"/><use xlink:href="#b" x="-.004" y="34.711"/><use xlink:href="#2"/><use xlink:href="#11" y="2.171"/><use xlink:href="#13" y="4.342"/><use xlink:href="#15" y="6.513"/><use xlink:href="#18" y="8.684"/><use xlink:href="#27" y="10.855"/><use xlink:href="#29" y="13.026"/><use xlink:href="#30" y="15.197"/><use xlink:href="#31" y="17.368"/><use xlink:href="#33" y="19.539"/><use xlink:href="#34" y="21.71"/><use xlink:href="#35" y="23.881"/><use xlink:href="#36" y="26.052"/><use xlink:href="#37" y="28.223"/><use xlink:href="#38" y="30.394"/><use xlink:href="#1" y="32.565"/></svg></svg></g></g></svg></svg>